<?xml version="1.0" encoding="utf-8"?>
<!-- Generator: Adobe Illustrator 24.0.3, SVG Export Plug-In . SVG Version: 6.00 Build 0)  -->
<svg version="1.1" id="Capa_1" xmlns="http://www.w3.org/2000/svg" xmlns:xlink="http://www.w3.org/1999/xlink" x="0px" y="0px"
	 viewBox="0 0 512 512" style="enable-background:new 0 0 512 512;" xml:space="preserve">
<style type="text/css">
	.st0{opacity:0.5;enable-background:new    ;}
	.st1{clip-path:url(#SVGID_2_);}
	.st2{clip-path:url(#SVGID_4_);fill:#39B899;}
	.st3{clip-path:url(#SVGID_6_);}
	.st4{clip-path:url(#SVGID_8_);fill:#39B899;}
</style>
<g class="st0">
	<g>
		<g>
			<g>
				<g>
					<defs>
						<rect id="SVGID_1_" x="187.4" y="111.2" width="0.1" height="3.8"/>
					</defs>
					<clipPath id="SVGID_2_">
						<use xlink:href="#SVGID_1_"  style="overflow:visible;"/>
					</clipPath>
					<g class="st1">
						<g>
							<g>
								<g>
									<defs>
										<rect id="SVGID_3_" x="187.4" y="111.2" width="0.1" height="3.8"/>
									</defs>
									<clipPath id="SVGID_4_">
										<use xlink:href="#SVGID_3_"  style="overflow:visible;"/>
									</clipPath>
									<path class="st2" d="M187.4,115c0-1.3,0.1-2.6,0.1-3.8C187.4,112.5,187.4,113.8,187.4,115"/>
								</g>
							</g>
						</g>
					</g>
				</g>
			</g>
		</g>
	</g>
</g>
<g class="st0">
	<g>
		<g>
			<g>
				<g>
					<defs>
						<rect id="SVGID_5_" x="1.1" y="93.2" width="0.1" height="0.6"/>
					</defs>
					<clipPath id="SVGID_6_">
						<use xlink:href="#SVGID_5_"  style="overflow:visible;"/>
					</clipPath>
					<g class="st3">
						<g>
							<g>
								<g>
									<defs>
										<rect id="SVGID_7_" x="1.1" y="93.2" width="0.1" height="0.6"/>
									</defs>
									<clipPath id="SVGID_8_">
										<use xlink:href="#SVGID_7_"  style="overflow:visible;"/>
									</clipPath>
									<path class="st4" d="M1.1,93.8c0-0.2,0-0.4,0.1-0.6C1.1,93.4,1.1,93.7,1.1,93.8"/>
								</g>
							</g>
						</g>
					</g>
				</g>
			</g>
		</g>
	</g>
</g>
<g>
	<path d="M103.1,218.5v89.4H75.2v-89.4H55.9v-26h66.4v26H103.1z"/>
	<path d="M126.1,192.5h31.2l27,80.2l27-80.2H241l-42.5,115.4h-30.2L126.1,192.5z"/>
</g>
<g>
	<path d="M293.7,187.6c71.8-15.7,144.1,29.8,161,101.3c0.5,2,1.8,3.7,3.4,4.9c1.7,1,3.7,1.5,5.9,1c4.2-0.9,6.7-5,5.8-9.1
		c-18.8-79.8-99.4-130.5-179.5-113.1c-4.2,0.9-6.7,5-5.8,9.1C285.3,185.9,289.5,188.5,293.7,187.6L293.7,187.6z"/>
	<path d="M423.6,303.6c4.2-0.9,6.7-5,5.8-9.1c-13.6-57.6-71.7-94.2-129.5-81.7c-3.2,0.6-5.8,3.2-6.1,6.7c-0.3,3,1.2,5.8,3.6,7.3
		c1,0.6,2.1,1,3.3,1.1c0.8,0.1,1.7,0,2.5-0.1c49.5-10.8,99.4,20.6,111,69.9C415.2,301.9,419.5,304.5,423.6,303.6z"/>
	<path d="M378.1,311.2c1.7,1,3.7,1.5,5.9,1c4.2-0.9,6.7-5,5.8-9.1c-4.2-17.4-14.8-32.2-30-41.8c-15.3-9.6-33.2-12.8-50.8-9
		c-4.2,0.9-6.7,5-5.8,9.1c1,4.2,5.2,6.8,9.3,5.9c13.5-2.9,27.4-0.5,39,6.9c11.8,7.4,20,18.8,23.1,32.2
		C375.2,308.5,376.4,310.2,378.1,311.2z"/>
	<path d="M317.1,286.8c-2,0.4-3.7,1.6-4.9,3.3c-3.6,5.7,1.8,13.3,8.4,11.7c4.2-0.9,8.4-0.1,12.1,2.1c3.6,2.3,6.2,5.9,7.2,10
		c2.7,9.8,17,6.7,15.1-3.2C351.1,293.9,334.1,283.2,317.1,286.8L317.1,286.8z"/>
</g>
<g>
	<path d="M375.5,463.2c0,13.2-10.8,24-24,24h-192c-13.2,0-24-10.8-24-24V356.7h-16v106.5c0,22.1,17.9,40,40,40h192
		c22.1,0,40-17.9,40-40V356.4h-16V463.2z"/>
	<path d="M351.5,7.2h-192c-22.1,0-40,17.9-40,40v95.5h16V47.2c0-13.2,10.8-24,24-24h25.4l6.7,33.6c0.7,3.7,4,6.4,7.8,6.4h112
		c3.8,0,7.1-2.7,7.8-6.4l6.7-33.6h25.6c13.2,0,24,10.8,24,24v93.5h16V79.9V47.2C391.5,25.1,373.6,7.2,351.5,7.2z M304.9,47.2H206
		l-4.8-24h108.5L304.9,47.2z"/>
</g>
</svg>
