<?xml version="1.0" encoding="utf-8"?>
<!-- Generator: Adobe Illustrator 25.3.0, SVG Export Plug-In . SVG Version: 6.00 Build 0)  -->
<svg version="1.1" id="Layer_1" xmlns="http://www.w3.org/2000/svg" xmlns:xlink="http://www.w3.org/1999/xlink" x="0px" y="0px"
	 viewBox="0 0 512 512" style="enable-background:new 0 0 512 512;" xml:space="preserve">
<g>
	<path d="M256.5,9C117.2,9,2.9,119,2.9,256.9C2.9,393.1,117.2,503,256.5,503s252.6-110,252.6-246.1C509.1,119,395.6,9,256.5,9z
		 M256.5,405.3c-83.9,0-153.6-67.3-153.6-148.4c0-82.9,69.6-150.2,153.6-150.2c84.8,0,152.6,67.3,152.6,150.2
		C409.1,338.1,341.2,405.3,256.5,405.3z"/>
	<path d="M207.3,196.6c0-7,6.2-11.4,12.5-7.9l106.3,59.4c3.6,1.8,5.4,4.4,5.4,7.9c0,2.6-1.8,6.1-5.4,7.9l-106.3,59.4
		c-0.9,0.9-2.6,0.9-4.5,0.9c-3.6,0-8.1-2.6-8.1-8.8L207.3,196.6L207.3,196.6z"/>
</g>
</svg>
