<?xml version="1.0" encoding="utf-8"?>
<!-- Generator: Adobe Illustrator 28.1.0, SVG Export Plug-In . SVG Version: 6.00 Build 0)  -->
<svg version="1.1" id="Layer_1" xmlns="http://www.w3.org/2000/svg" xmlns:xlink="http://www.w3.org/1999/xlink" x="0px" y="0px"
	 viewBox="0 0 2738 308.8" style="enable-background:new 0 0 2738 308.8;" xml:space="preserve">
<style type="text/css">
	.st0{display:none;fill:#335929;}
	.st1{fill:#FFFFFF;}
	.st2{fill:none;stroke:#FFFFFF;stroke-width:4;stroke-miterlimit:10;}
	.st3{fill:#FFFFFF;stroke:#FFFFFF;stroke-width:4;stroke-miterlimit:10;}
</style>
<rect x="-98.4" y="-222.8" class="st0" width="3763.5" height="703.6"/>
<g>
	<path class="st1" d="M3737.8,153.6l9.9,19.8h-11.2l-8.6-17.8h-2.9v17.8h-10.3V130h15c9.1,0,13.7,4.7,13.7,12.9
		C3743.3,147.8,3741.4,151.5,3737.8,153.6z M3725.1,139.1v8h3.7c2.4,0,3.7-1.6,3.7-4s-1.4-3.9-3.7-3.9
		C3728.8,139.1,3725.1,139.1,3725.1,139.1z"/>
	<path class="st1" d="M3776,163.1h-13.7l-3.6,10.3h-10.3l15.2-43.4h11.1l16,43.4h-11.1L3776,163.1z M3765.3,154.4h7.6l-3.8-11
		L3765.3,154.4z"/>
	<path class="st1" d="M3802.6,130.1c14.4,0,23.1,7.9,23.1,21.6c0,13.5-8.7,21.8-23.1,21.8h-9.9v-43.4H3802.6L3802.6,130.1z
		 M3803.1,164.3c6.9,0.1,11.7-4.1,11.7-12.5c0-8.3-4.5-12.4-11.7-12.4V164.3z"/>
	<path class="st1" d="M3839.9,173.4h-10.4V130h10.4V173.4z"/>
	<path class="st1" d="M3866.1,129.2c14.2,0,23,9.7,23,22.4s-8.7,22.6-22.7,22.6c-14.2,0-22.9-9.7-22.9-22.4
		C3843.7,139.2,3852.9,129.2,3866.1,129.2z M3866.5,164.4c7.6,0,11.8-5.6,11.8-12.8c0-7.1-4.4-12.8-11.8-12.8
		c-7.6,0-11.8,5.6-11.8,12.8C3854.6,158.9,3859.2,164.4,3866.5,164.4z"/>
	<path class="st1" d="M3906.2,145.7l5.5,2.1c5.6,2.3,9,6.1,9,12.5c0,8.7-6.2,13.9-15,13.9c-12.4,0-14.6-8.1-14.3-14.5h9.9
		c-0.2,2.8,0.9,5.5,4.4,5.5c2.4,0,4.1-1.3,4.1-3.8c0-2.4-1.8-3.7-4.5-4.7c-2.2-0.8-4.4-1.7-6.8-2.9c-4.4-2.3-6.7-6.5-6.7-11.8
		c0-7.6,5.5-12.9,13.9-12.9c10.3,0,13.9,5.8,13.5,13.5h-9.7c0.1-2.7-1.3-4.5-3.7-4.5s-3.6,1.4-3.6,3.3
		C3902.3,143.3,3903.4,144.5,3906.2,145.7z"/>
	<path class="st1" d="M3711.6,183.3h9.9l5.1,10.1l5.1-10.1h9.3l-10.4,18.7v18.3h-8.9v-18.1L3711.6,183.3z"/>
	<path class="st1" d="M3776.1,220.1h-8.4l-8.7-25.9v25.9h-8.2v-36.9h13.3l8.2,25l8.2-25h13.1v36.9h-8.6v-25.9L3776.1,220.1z"/>
	<path class="st1" d="M3797.7,205.4v-22.2h9v22.2c0,4.1,1.9,7.1,6.4,7.1c4.2,0,6.2-2.9,6.2-7.1v-22.1h8.9v22.2
		c0,8.9-5.1,15.5-15.3,15.5C3802.5,220.9,3797.7,214.7,3797.7,205.4z M3821.2,174.7l-4.1,7.1h-8.2l3.9-7.1H3821.2z"/>
	<path class="st1" d="M3843.9,196.6l4.6,1.8c4.8,1.9,7.6,5.1,7.6,10.7c0,7.5-5.3,11.8-12.7,11.8c-10.6,0-12.4-6.8-12.1-12.3h8.4
		c-0.2,2.4,0.8,4.6,3.7,4.6c2,0,3.5-1.2,3.5-3.3s-1.5-3.1-3.9-4c-1.9-0.8-3.7-1.4-5.8-2.4c-3.7-1.9-5.7-5.5-5.7-10
		c0-6.5,4.7-10.9,11.8-10.9c8.7,0,11.8,5,11.4,11.5h-8.2c0.1-2.3-1.2-3.9-3.2-3.9s-3,1.3-3,2.8
		C3840.5,194.5,3841.3,195.6,3843.9,196.6z"/>
	<path class="st1" d="M3868.2,220.1h-8.9v-36.9h8.9V220.1z"/>
	<path class="st1" d="M3903.4,216.1c-3.1,3-7.1,4.8-12.3,4.8c-12.3,0-19.7-8.3-19.7-19.2c0-10.7,7.6-19.2,19.5-19.2
		c5.6,0,9.6,1.8,12.4,4.4l-5.3,6.7c-1.3-1.3-3.8-2.8-7.1-2.8c-6.6,0-10.3,4.8-10.3,10.8c0,6.1,4.1,10.8,10.3,10.8
		c3.1,0,5.5-1.3,7.1-2.8L3903.4,216.1z"/>
	<path class="st1" d="M3926.8,211.3h-11.6l-3,8.8h-8.7l12.9-36.9h9.3l13.6,36.9h-9.4L3926.8,211.3z M3917.7,203.9h6.5l-3.3-9.3
		L3917.7,203.9z"/>
	<g>
		<path class="st1" d="M3644.6,104.9c-13.7,0-24.9,11.1-24.9,24.9v48.8c0,13.7,11.1,24.9,24.9,24.9s24.9-11.1,24.9-24.7v-49
			C3669.5,116,3658.3,104.9,3644.6,104.9z M3659.1,178.7c0,7.9-6.5,14.3-14.5,14.3c-8.1,0-14.5-6.5-14.5-14.5v-48.8
			c0-8,6.5-14.5,14.5-14.5c8.1,0,14.5,6.5,14.5,14.5V178.7z"/>
	</g>
	<g>
		<path class="st1" d="M3639.4,219.2v23.3c0,2.9,2.3,5.1,5.1,5.1c2.9,0,5.1-2.3,5.1-5.1v-23.3c0-2.9-2.3-5.1-5.1-5.1
			C3641.8,214,3639.4,216.4,3639.4,219.2z"/>
	</g>
	<g>
		<path class="st1" d="M3683.8,168.8c-2.9,0-5.1,2.3-5.1,5.1v4.1c0,18.7-15.3,34-34,34s-34-15.3-34-34v-4.1c0-2.9-2.3-5.1-5.1-5.1
			c-2.9,0-5.1,2.3-5.1,5.1v4.1c0,24.5,19.8,44.4,44.4,44.4c24.5,0,44.4-19.8,44.4-44.4v-4.1C3688.9,171.1,3686.7,168.8,3683.8,168.8
			z"/>
	</g>
	<g>
		<path class="st1" d="M3768.2,231.4h-28.6c-2.9,0-5.1,2.3-5.1,5.1s2.3,5.1,5.1,5.1h28.6c2.9,0,5.1-2.3,5.1-5.1
			S3771,231.4,3768.2,231.4z"/>
	</g>
</g>
<g>
	<g>
		<path class="st1" d="M1610.5,149.6c0.3-1,0.6-1.9,0.9-2.9c2.3-7.7,4.6-15.4,6.9-23.2l0.3-0.9c0.3-0.9,1.1-1.4,2-1.4h7.6
			c1.9,0,2.3,0.6,1.6,2.4l-3,8c-3.4,8.7-6.7,17.4-10.1,26.1c-0.1,0.3-0.3,0.6-0.3,0.9c-0.3,1.1-1.4,1.8-2.5,1.6
			c-2.2-0.1-4.5-0.1-6.6,0c-1.5,0.1-2.4-0.7-3-2c-1.3-3.3-2.5-6.6-3.8-10c-3-7.9-6-15.7-9.1-23.5c-0.3-0.6-0.5-1.3-0.7-1.9
			c-0.2-1,0.2-1.5,1.2-1.5c2.8-0.1,5.7,0,8.4,0c1.2,0,1.8,0.8,2,1.8c0.6,1.9,1.1,3.8,1.6,5.8c2,7,3.9,13.9,6,20.8
			C1610.3,149.6,1610.3,149.6,1610.5,149.6L1610.5,149.6z"/>
		<path class="st1" d="M1645.8,140.6v18c-0.1,1-0.6,1.4-1.5,1.5c-2.7,0.1-5.4,0.1-8.1,0c-1,0-1.4-0.5-1.5-1.4
			c-0.1-0.3-0.1-0.7-0.1-0.9v-34.5c0.1-1.5,0.4-2,2-2h7.1c1.5,0,2,0.4,2,2L1645.8,140.6L1645.8,140.6z"/>
		<path class="st1" d="M1640.2,103.2c1-0.1,2,0.1,2.9,0.5c1.9,0.8,3.3,2.5,3.4,4.6c0.4,4.5-2.7,6.9-6.7,6.8c-0.6,0-1.1-0.1-1.6-0.2
			c-3.1-0.8-4.7-3.2-4.5-6.6c0.3-2.7,2.4-4.8,5.4-5C1639.6,103.2,1639.9,103.1,1640.2,103.2L1640.2,103.2z"/>
		<path class="st1" d="M1776.4,144.2C1776.4,144.1,1776.4,144.1,1776.4,144.2z"/>
		<path class="st1" d="M1776.4,137.5v0.2c-0.2-0.2-0.3-0.5-0.2-0.8v-0.4c0,0,0-0.1,0.1-0.1h-0.1v-0.5h0.1c0-0.1-0.1-0.1-0.1-0.1
			c-0.1-0.9-0.3-1.9-0.6-2.7c-1.8-6.6-6-11-12.7-12.6c-3.2-0.8-6.4-0.8-9.5-0.3c-6.8,1-11.5,4.6-13.9,11c-2.3,6-2.3,12.8,0.1,18.9
			c2,5.5,6,9.1,11.7,10.4c3,0.8,6.2,0.9,9.3,0.5c10.4-1.3,14.8-9.2,15.6-16h-0.1v-0.7c-0.1-0.3-0.1-0.6,0.2-0.8v0.1
			c0-0.1,0.1-0.2,0.1-0.2V137.5C1776.5,137.6,1776.4,137.6,1776.4,137.5z M1764.4,147c-0.3,1.1-0.8,2-1.4,2.9
			c-1.1,1.5-2.8,2.5-4.8,2.7c-0.9,0.1-1.9,0.1-2.8-0.1c-2.1-0.4-3.8-1.8-4.7-3.8c-0.8-1.5-1.2-3.3-1.3-4.9c-0.3-2.9-0.3-5.9,0.4-8.8
			c0.3-1.2,0.8-2.3,1.3-3.3c1.1-1.8,3-2.9,5-3.1c0.9-0.1,1.9-0.1,2.8,0.1c2,0.4,3.7,1.6,4.5,3.5c0.8,1.8,1.3,3.7,1.4,5.6
			c0.1,0.9,0.1,1.8,0.1,2.7C1765.3,142.8,1765,145,1764.4,147L1764.4,147z"/>
		<path class="st1" d="M1688.9,103.5h-7c-1.9,0-2.3,0.3-2.3,2.3v16.1c0,0.3,0.2,0.7-0.1,1.1c-0.4-0.1-0.7-0.3-1.1-0.6
			c-5.2-3-10.6-3.6-16.1-1.1c-3.8,1.8-6.2,5-7.8,8.9c-1.5,3.7-1.8,7.6-1.8,11.5c0,3.7,0.8,7.3,2.5,10.6c1.9,3.7,4.6,6.5,8.6,7.6
			c5.5,1.6,10.5,0.8,15.1-2.6c0.3-0.2,0.6-0.6,1-0.7c0.3,0.6,0.4,1.2,0.6,1.8c0.2,0.8,0.9,1.3,1.8,1.3h1.2c1.8,0,3.5,0.1,5.3,0
			c1.4,0,1.8-0.4,1.8-1.9v-52.7C1690.8,103.9,1690.4,103.5,1688.9,103.5L1688.9,103.5z M1679.8,140.2v9.2c0.1,0.6-0.3,1.2-0.8,1.4
			c-2.4,1.3-5,1.9-7.9,1.5c-2.3-0.3-4.3-1.6-5.4-3.7c-0.8-1.6-1.3-3.3-1.4-5c-0.4-3.2-0.2-6.4,0.6-9.3c0.3-0.8,0.6-1.6,1-2.4
			c1.1-1.9,3-3.2,5.3-3.4c2.7-0.3,5.3,0.3,7.7,1.3c0.6,0.2,0.9,0.8,0.9,1.4C1679.8,134.3,1679.8,137.2,1679.8,140.2L1679.8,140.2z"
			/>
		<path class="st1" d="M1719.1,144.2c2.9-0.2,5.8-0.8,8.3-2.2c2.7-1.3,4.5-3.8,5-6.6c0.3-1.8,0.3-3.7-0.1-5.5
			c-1.1-4.5-3.9-7.2-8.2-8.7c-2.4-0.8-4.9-1.1-7.4-0.9c-8.3,0.2-14.8,4.5-17.4,12.8c-1.8,5.5-1.5,11.3,0.2,16.8
			c1.8,5.7,5.8,9.2,11.4,10.7c2.4,0.6,5,0.8,7.4,0.8c3.7-0.1,7.2-0.8,10.7-2c1.4-0.6,1.8-1.1,1.8-2.6v-3.6c-0.1-1.4-0.7-1.9-2.1-1.6
			c-1.1,0.3-2.2,0.6-3.3,0.8c-3.4,0.8-6.9,0.9-10.3,0.3c-3.4-0.7-5.7-2.6-6.6-6c-0.3-1-0.4-2-0.6-3c0.3,0,0.5,0,0.7,0.1
			C1712.4,144.2,1715.8,144.4,1719.1,144.2L1719.1,144.2z M1708.6,136.2c0.3-1.9,0.8-3.8,2-5.5c1.8-2.4,4.5-3.2,7.2-2.8
			c0.3,0,0.4,0.1,0.7,0.1c3.5,0.6,4.4,3.4,3.7,6c-0.5,2-2.2,2.7-3.9,3.1c-1,0.2-2,0.3-3.1,0.3c-2-0.1-3.9-0.2-6-0.5
			C1708.7,136.9,1708.5,136.7,1708.6,136.2z"/>
	</g>
	<g>
		<path class="st1" d="M1574.9,225.9c-2.7-0.2-5.5-0.3-8.2-0.4c-7.2-0.6-14.6-1.6-21.6-3.3c-24.5-5.7-46-17.1-64.7-33.7
			c-1.8-1.5-3.4-3.2-5-4.8c-0.4-0.3-0.8-0.8-0.9-1.3c-0.3-0.7-0.2-1.4,0.3-2s1.3-0.8,2-0.4c0.4,0.2,0.9,0.4,1.3,0.7
			c18,11.1,37.6,19.2,58,23.9c6.9,1.6,13.8,2.8,20.8,3.8c10.1,1.3,20.1,1.6,30.2,1.3c5.5-0.2,10.8-0.7,16.2-1.3
			c12.5-1.6,25-4.5,37.1-8.4c6.4-2.1,12.5-4.5,18.6-7.2c0.9-0.5,2-0.7,3-0.4c1.6,0.4,2.7,2.1,2.3,3.8c-0.1,0.2-0.2,0.4-0.3,0.7
			c-0.4,0.8-0.9,1.4-1.6,1.9c-5.8,4.5-11.9,8.4-18.5,11.7c-12.4,6.2-25.5,10.7-39.1,13.2c-7.8,1.4-15.8,2.3-23.5,2.5h-0.1v0.2h-6
			L1574.9,225.9L1574.9,225.9z M1666.7,177.2c3.3,0.1,6.6,0.3,9.7,1.2c0.9,0.3,1.8,0.6,2.6,0.9c1.2,0.4,1.9,1.5,2,2.7
			c0.2,1.4,0.3,2.8,0.2,4.3c-0.7,8.5-3.3,16.8-7.7,24.1c-1.6,2.7-3.5,5-5.8,7.1c-0.4,0.4-1,0.8-1.6,1c-0.9,0.3-1.5-0.3-1.6-1.2
			c0.1-0.5,0.2-1,0.3-1.5c1.8-4.7,3.4-9.3,4.8-14.1c0.8-2.7,1.3-5.4,1.6-8.2c0.1-1,0.2-2,0.1-3c-0.1-1.6-1.2-3.2-2.7-3.7
			s-3.2-0.8-4.8-0.9c-4.6-0.2-9.2,0-13.7,0.6l-6,0.8c-0.7,0.1-1.3,0-1.6-0.6s-0.2-1.2,0.2-1.8s0.9-1.1,1.5-1.4
			c3.7-2.7,7.9-4.3,12.3-5.3C1659.7,177.6,1663.2,177.3,1666.7,177.2L1666.7,177.2z"/>
		<path class="st1" d="M1415.3,136.4c-0.2-2.6-0.9-5-1.9-7.6c-2-4.3-5.2-7.4-10-8.5c-5.5-1.2-10.4,0-14.9,3.4
			c-0.3,0.3-0.7,0.6-1.1,0.8c-0.1-0.1-0.2-0.1-0.2-0.2c-0.2-0.5-0.3-1-0.4-1.5c-0.4-1.3-0.9-1.6-2.3-1.6c-1.5,0-3,0.1-4.5,0
			c-1.2-0.1-2.2,0.1-3,1c0,17.5,0,35,0.1,52.3c0.7,1.1,1.6,1.3,2.7,1.2c1.8-0.1,3.6,0,5.4,0c3.2,0,3.2,0,3.2-3.1v-14.2
			c0-0.3-0.2-0.8,0.2-1.1c2.5,1.9,5.5,3.2,8.7,3.4c4.5,0.4,8.3-0.7,11.7-3.7c2.4-2.3,4.3-5,5.2-8.3
			C1415.5,144.7,1415.6,140.6,1415.3,136.4L1415.3,136.4z M1550.7,143.8c3.8,0.7,7.6,0.8,11.3,0.2c2.2-0.3,4.3-0.9,6.2-2
			c2.3-1.3,3.9-3.1,4.6-5.6c1.8-6.2-0.9-12.6-7.4-15c-3.2-1.1-6.6-1.4-10-0.9c-7.9,0.9-13,5.3-15.4,12.8c-1.6,5-1.4,10.3-0.1,15.6
			c1.8,6.6,6,10.5,12.8,11.9c3.8,0.8,7.6,0.7,11.4,0.1c2-0.3,3.9-0.8,5.9-1.6c1.2-0.4,1.8-1.2,1.6-2.4c-0.1-1.2,0-2.4,0-3.7
			c0-1.5-0.6-1.9-2-1.6c-1.4,0.3-2.8,0.7-4.3,0.9c-3.1,0.7-6.2,0.7-9.3,0.1c-4.3-0.8-7.1-4.5-6.8-9
			C1549.7,143.6,1550.2,143.6,1550.7,143.8L1550.7,143.8z M1482,160.1h-6.7c-1.8,0-2.2-0.5-2.2-2.2v-34.6c0-0.4,0.1-0.8,0.2-1.2
			c0.2-0.6,0.8-0.9,1.4-0.9h6.2c0.9,0,1.4,0.6,1.8,1.4c0.3,0.7,0.4,1.3,0.7,2.1c0.5,0,0.8-0.3,1.2-0.6c2.7-1.6,5.6-3.2,8.9-3.8
			c2.5-0.5,5-0.5,7.4,0s4.5,1.9,5.8,3.9c0.1,0.2,0.2,0.3,0.3,0.3c-0.1,0.1,0,0.1,0.1,0.2c1.3-0.8,2.5-1.5,3.9-2.3
			c3.5-1.8,7.3-2.7,11.3-2.5c2.8,0.2,5.5,0.9,7.4,3c1.9,1.9,2.6,4.4,2.7,7c0.1,0.6,0.1,1.1,0.1,1.6v25.8c0,2.3-0.3,2.5-2.5,2.5h-6.2
			c-0.4,0-0.8,0-1.2-0.1c-0.6-0.1-1.1-0.6-1.2-1.2c-0.1-0.5-0.1-1.1-0.1-1.6v-23.1c0.1-0.9-0.1-1.8-0.3-2.7
			c-0.4-1.5-1.8-2.7-3.4-2.7c-2.9-0.2-5.9,0.4-8.6,1.6c-0.4,0.1-0.7,0.5-0.6,0.9v26.3c0,0.5,0,0.9-0.1,1.4c0,0.7-0.6,1.2-1.3,1.2
			c-0.8,0.1-1.5,0.1-2.3,0.1h-5.2c-1.8,0-2.3-0.4-2.3-2.3v-23.4c0-0.8-0.1-1.8-0.3-2.6c-0.3-1.6-1.8-2.9-3.5-3c-3-0.2-6,0.4-8.7,1.6
			c-0.4,0.1-0.7,0.6-0.6,0.9v26.6C1484.3,159.7,1483.9,160.1,1482,160.1L1482,160.1z M1431.5,160.1h-6.6c-0.3,0-0.8,0-1.1-0.1
			c-0.7-0.1-1.2-0.6-1.2-1.3c-0.1-0.4-0.1-0.8-0.1-1.2v-34c0-2.3,0.3-2.5,2.5-2.5h4.8c1.3,0,1.9,0.4,2.3,1.6
			c0.3,1.2,0.7,2.5,0.9,3.8c0.3-0.1,0.7-0.3,0.8-0.6c0.9-0.9,1.8-1.8,2.8-2.5c2.6-2,5.9-3,9.2-2.7c1.3,0.1,1.8,0.4,1.8,1.6
			c0.1,1.6,0.1,3.4,0.1,5c0.1,0.7,0,1.3-0.1,2c-0.2,0.9-0.6,1.3-1.4,1.3c-0.7,0.1-1.3,0-2-0.1c-3.4-0.3-6.6,0.3-9.7,1.4
			c-0.7,0.3-0.7,0.8-0.7,1.3V157c0,0.4,0,0.8-0.1,1.3c-0.1,0.7-0.6,1.2-1.2,1.2C1432.2,160.1,1431.9,160.1,1431.5,160.1z
			 M1461.6,159.9h-7c-0.3,0-0.4,0-0.7-0.1c-0.7-0.1-1.3-0.6-1.3-1.3c-0.1-0.4-0.1-0.8-0.1-1.2c0.1-5.5,0.1-11.3,0.1-16.9v-17.7
			c0.1-1.2,0.5-1.6,1.6-1.6c2.6-0.1,5.2-0.1,7.8,0c1.2,0,1.5,0.3,1.6,1.5c0.1,0.4,0.1,0.8,0.1,1.3v33.2c0,0.6-0.1,1.1-0.1,1.6
			c-0.1,0.7-0.6,1.1-1.2,1.2C1462.2,159.9,1462,159.9,1461.6,159.9L1461.6,159.9z M1403.4,146.6c-0.3,1.5-1.2,2.9-2.3,3.9
			c-1.3,1.1-2.9,1.8-4.6,1.8c-2.5,0.2-5-0.4-7.2-1.6c-0.6-0.3-0.9-0.8-0.8-1.4v-9.1c0-3,0.1-6,0-9c-0.1-0.7,0.3-1.3,1-1.5
			c2.7-1.3,5.6-1.9,8.6-1.3c2.1,0.3,3.9,1.6,4.8,3.6c0.8,1.6,1.2,3.4,1.3,5C1404.3,140.5,1404.3,143.7,1403.4,146.6L1403.4,146.6z
			 M1549.5,136c0.2-1.2,0.5-2.4,0.9-3.4c1.5-3.7,4.6-4.9,7.9-4.7c0.9,0.1,1.8,0.3,2.7,0.6c1.3,0.6,2.2,1.8,2.3,3.2
			c0.2,0.8,0.1,1.8-0.2,2.6c-0.6,1.8-2,2.5-3.8,2.9c-1.1,0.3-2.2,0.3-3.3,0.3c-1.9,0-3.9-0.2-5.9-0.4
			C1549.3,136.9,1549.3,136.9,1549.5,136L1549.5,136z M1458.5,103.2c0.8-0.1,1.6,0.1,2.4,0.3c2.7,0.9,4.1,3.3,3.8,6.2
			c-0.2,2.6-2.2,4.7-4.8,5c-1.1,0.2-2.3,0.2-3.4,0c-2.8-0.6-4.9-2.7-4.8-6.2C1452.1,105.1,1454.5,103.2,1458.5,103.2L1458.5,103.2z"
			/>
	</g>
</g>
<g>
	<path class="st1" d="M604.4,191.4c0.2,0,0.2,0,0.5,0.1c3.3,0.5,6.6,1,9,2.2c2.3,1,3.6,2.3,4.9,4.6c1.8,3.5,2,8.3,0.3,11.9
		c-1.3,2.7-4,5-6.6,6.2c-2.6,1.3-5.2,1.8-8.2,2.2c-5.2,0.6-10.8-0.5-15.5-2.7c-2.7-1.4-6.2-3.6-7.8-6.7c-1.3-2.2-1.2-5,0.3-7.1
		c2.5-3.4,7.7-4.1,11.5-3.9c3,0.2,8.3,1,11.2,2.1c0.8,0.3,3.7,1.4,4.2,1.9c0.4,0.4,0.6,0.9,0.5,1.4c-0.6,2-5.4,3-6.8,3.2
		c-3.7,0.6-5.7-0.8-9.9-2.6c-1-0.5-2.5-0.9-3.5-1c-1.9-0.2-4.2,0.4-4.6,2.5c-0.2,1.1,1.1,2.1,2.1,2.6c2.3,1,4.1,1.4,6.3,1.4
		c6.6,0.1,14-1,19.4-4.8c0.7-0.5,1.5-1.3,1.5-2.3c0-1.9-3.4-3.2-3.4-3.2c-3.6-1.5-10.3-2.2-13.9-2.6c-3.6-0.3-9.4-0.8-10.7-1
		c-1.4-0.2-3-0.5-4.2-1c-1.3-0.5-2.5-1.8-2.7-3.2c-0.6-2.5,0.2-5.5,1.5-7.5c3.6-5.2,12-7.1,18.3-7.9c6.1-0.7,16-0.7,22,2.5
		c0.9,0.5,1.4,1,1.2,1.9c-0.4,1.8-1.8,3-3.5,3.6s-5.4,0.8-7,0.9c-7.2,0.4-16,0.2-22.8,2.1c-0.5,0.2-1.5,0.4-1.8,0.7
		c-1,1.2,2,1.5,2.6,1.6c0.2,0.1,0.2,0.1,0.5,0.1L604.4,191.4 M561.3,159.1c0,0,1.2-1.8,2.2-3.1c1.8-2.5,5-5.8,7.5-7.9
		c0.7-0.6,1.6-1.4,1.6-1.4s-1.4,0.2-2.2,0.3c-1.8,0.4-4.6,2.2-5.9,3.4c-2.2,1.9-4.6,5-3.6,7.8C561.1,158.6,561.3,159.1,561.3,159.1
		 M573.8,162.5c3.6-0.2,6.8-1.3,9.9-3c3-1.7,7.5-5,7-8.9c-0.2-1.3-1-2.2-2-2.6c-1.4-0.6-2.1-0.5-3.8,0c-1.3,0.4-1.8,0.6-3,1.3
		c-3.5,2-8.4,6.3-11.1,9.9c-0.6,0.8-1.3,1.7-1.7,2.4c-0.3,0.4-0.5,0.7-0.5,0.8C568.8,162.6,572.4,162.6,573.8,162.5 M564.8,169
		c-0.4,0.4-0.7,1.4-1.2,2c-0.2,0.4-0.6,0.8-0.9,1c-0.9,0.6-1.7,0.7-2.6-0.1c-1.3-1.1-2-2.8-2-4.5c0-0.7,0.1-1.5-0.1-2.2
		c-0.2-1-1.3-2.1-1.8-3c-0.6-1.2-1.2-3.2-1.3-4.5c-0.2-4.1,1.9-7.8,4.6-10.8c2.8-3,6.5-5.5,10.5-7.2c3.8-1.5,9.3-2.6,13.5-1.3
		c1.4,0.5,3.3,1.6,4.2,2.8c0.2,0.2,0.4,0.5,0.6,0.6c0.2,0.2,0.6,0.2,1,0.2c1.4,0.2,3.2,1.3,4,1.9c1.5,1.4,2.5,2.6,2.8,4.6
		c0.8,3.8-1.4,7.9-3.8,10.4c-4.2,4.3-8.4,7.4-13.9,9.5c-2.4,1-6.1,1.8-8.8,1.5c-0.8-0.1-1.7-0.3-2.6-0.4
		C566.5,169.5,565.1,169,564.8,169C565.1,169.2,564.9,169,564.8,169 M569.7,177.4c0.2,0,0.5,0.1,0.6,0.2c1.9,0.7,2.6,2.5,3.1,4.4
		c1.1,4.5,1.5,14.4,1.7,18.3c0.2,2.9,0.2,5.8,0.3,8.7c0.1,2.5,0.3,5.7-0.2,7.9c-0.2,0.8-0.7,1.8-1.5,2.2c-0.9,0.6-3,0.6-4.1,0.4
		c-2.7-0.6-3.7-2.4-4.1-5.1c-1-6.6-0.5-19.4,0.1-24.9c0.2-1.8,0.9-7.5,1.8-9.9C567.8,178.9,568.5,177.3,569.7,177.4 M485.1,188.4
		c0,0-4.2,0.3-7,0.6c-3.6,0.4-10.4,1.5-14.3,3c-1.2,0.5-3.6,1.4-3.8,2.6c-0.2,1.3,0.6,2.2,1.4,3.3c0.5,0.6,3.4,3.4,4.2,4
		c3.4,2.7,10.1,7,15.1,9.1c1.7,0.7,4.6,1.7,4.6,1.7s-0.2-8-0.2-16C484.9,192.5,485.1,188.4,485.1,188.4 M560.9,191.6
		c0.2,2.2-0.3,6.2-0.5,6.7c-0.2,1.3-1.1,4.1-1.3,4.5c-0.7,1.7-1.5,3.2-2.3,4.6c-1.4,2.5-4.6,6.3-6.5,7.9
		c-7.1,6.2-18.1,9.7-27.6,10.9c-6.4,0.7-13.9,0.6-20.6-0.6c-2.3-0.5-5.8-1.3-5.8-1.3s0,1.4-0.1,2.4c-0.1,0.5-0.4,1.6-0.6,2
		c-0.5,1-1.4,1.5-2.5,1.8c-1.4,0.3-2.9,0.4-4.2-0.2c-2.2-0.9-3-2.9-3.4-5.3c-0.3-1.8-0.6-5.1-0.6-5.1s-1.6-0.7-3-1.4
		c-4.2-2-8.1-4.6-11.5-7c-1-0.7-5-4.2-5.9-5c-2.6-2.4-4.8-4.8-6.6-7.9c-1.4-2.4-1.7-4.6-0.7-7c1.4-3.6,6.5-6.2,9.9-7.8
		c2.6-1.1,10.5-3.7,13.9-4.2c1.5-0.2,3.9-0.6,4.1-0.7c0.1-0.1,0.1-0.1,0.2-0.2c0.1-0.1,0.2-3.6,0.2-4.9c0-1.3,1-9.5,1.3-11.3
		c0.2-1,0.9-4.6,1.6-5.6c0.5-0.6,1.4-0.6,2-0.2c3.8,2.4,4.9,10.5,5.2,14.7c0.2,2.6,0.2,6.3,0.2,6.3s4.3-0.2,7-0.1
		c2.6,0.1,5.4,0.5,8.2,0.9c3.4,0.5,10.2,2,14,3.9c3.2,1.6,6.2,4.3,7.1,7.2c0.9,2.6,0.7,4.5-0.6,6.8c-1.5,2.6-4.5,4.6-7.4,4.8
		c-0.9,0.1-4.2-0.4-5.2-1.2c-0.4-0.3-0.4-0.9-0.1-1.3c0.1-0.2,1.6-1,2.6-1.4c0.5-0.2,0.8-0.5,1.2-0.8c0.7-0.6,1.4-1.4,1.4-2.2
		c-0.1-1.1-1.3-1.8-2.4-2.2c-5.3-2.1-15.8-3.8-20.8-4.1c-2-0.2-4.8-0.2-4.8-0.2l0.6,28c0,0,2.3,0.5,4.2,0.7c1,0.2,5.5,0.6,6.7,0.6
		c9.1,0.2,19.1-0.6,27.5-4.5c3.6-1.7,7-3.8,9.5-6.7c3.4-3.8,5-9.1,4.6-14.6c-0.5-5.9-4.6-13.1-8.1-17.4
		c-8.8-11.5-24.1-20.8-37.5-26.4c-13.7-5.7-27.2-8.8-41.7-9.4c-3.7-0.2-11.9,0.1-16,1.2c-0.6,0.2-1.2,0.4-1.7,0.5s-1.1,0.4-1.3,0.5
		c-0.1,0.1-0.2,0.2-0.2,0.2s0.2,0.2,0.5,0.2c0.5,0.2,2.3,0.3,3.2,0.5c0.8,0.2,1.7,0.6,2.1,1.3c0.3,0.6,0.4,1,0,1.5
		c-1,1.1-4.5,1-6,0.6c-1.6-0.2-3.6-0.7-4-2.2c-0.5-1.6,0.4-3.3,1.2-4.7c1.7-3,4.2-4.6,7.8-5.5c5-1.4,11.5-2.4,16.3-2.6
		c10.9-0.5,21.1,1.5,31.6,4.6c6,1.8,13.9,4.8,19.6,7.7c4.2,2,10.7,5.7,14.3,8c1.2,0.7,7.9,5.7,8.9,6.6c2.2,1.8,5,4.4,7.1,6.4
		c4,3.9,9,10,11.5,14.9c0.6,1.2,1,2.3,1.8,3.6c0.2,0.5,1.4,3.2,1.5,4s0.5,1.9,0.5,2C560.5,188.3,560.9,190.7,560.9,191.6
		 M697.1,185.4c-5,1.2-18.4,1.8-18.4,1.8l-1.7,5.3c0,0,6.7-0.6,11.5-0.1c0,0,1.5-0.2,1.8,1.8c0.1,1.8-0.2,3.8-0.2,3.8
		s-0.1,1.2-1.8,1.5c-1.8,0.3-14.3,0.8-14.3,0.8l-2,6.8c0,0-0.7,1.5,1,1.1c1.5-0.5,14.7-2.9,16.4-2.6c1.8,0.5,3.8,2.9,3.3,5.1
		c-0.6,2.7-13.9,11.1-21.8,10.6c0,0-4.2,0.3-7.8-5.4c-3.3-5.4,1.3-15.6,1.3-15.6s-2.1-4.7-0.6-6.4c0,0,0.9-0.8,3.5-1l3.2-6.6
		c0,0-3.6,0.2-5.8-2.5c-2-2.6-2.2-3.7-0.6-4.5s16.9-3.6,27.5-3.3c0,0,3.6-0.4,6.8,5.9C698.3,182.2,699.7,184.7,697.1,185.4
		 M657.6,210.9c-1.4,3.2-4.9,6.6-9.3,4.5c-4.4-2.1-11.3-16.3-11.3-16.3s-2.6-5.3-3.1-5.1c0,0-0.6-1-0.9,4.7
		c-0.4,5.8,0.1,17.1-2.2,18.7c-2.2,1.8-4.8,1-6.2-1c-1.3-2-1.8-6.9-1.1-15.4c0.8-8.6,2.7-17.6,5.3-20.4c2.6-2.8,4.6-0.7,5.4,0
		c0,0,3.4,3,9,12l1,1.6c0,0,5,8.5,5.6,8.5c0,0,0.5,0.4,0.8,0.1c0.5-0.2,0.3-2.9,0.3-2.9s-1-9.3-5.7-25c0,0-0.6-1.9-0.2-3.8
		s2.3-1,2.3-1s7.1,3.6,10.7,15.2C661.3,197.2,659.1,207.8,657.6,210.9 M734.9,203.9c-3.3,5.7-12.5,17.6-24.8,14.8
		c-4,9.9-7.5,19.7-9.4,34.6c0,0-0.5,2.9-2.8,1.8c-2.4-0.8-6.3-4.7-7-10.3c-0.8-7.2,2.4-19.3,8.8-33.2c-1.9-3.1-3.2-7.5-2.1-13.9
		c0,0,1.6-11.7,13.4-22.3c0,0,1.4-1.2,2.2-0.8c0.9,0.4,0.5,4.2-0.2,6s-5.9,10.9-5.9,10.9s-3.3,6.1-2.4,10.9
		c6.2-9.5,20.2-28.5,28.8-22.5c2.9,2.1,4.2,6.6,4.2,11.5C737.8,195.9,736.8,200.5,734.9,203.9 M732.3,189c0,0-0.5-3.8-4.2,0.4
		c-3.2,3.5-8.8,10-13.5,19c4.8-0.5,9.5-3.1,10.9-4.5C727.8,201.8,733.2,196.3,732.3,189 M802.3,188.1h-22.4
		c-0.5-7.7-1.4-15.1-2.8-22.7c-0.2-0.8-0.8-1.4-1.6-1.4h-5.2c-0.5,0-0.9,0.2-1.2,0.5c-0.3,0.4-0.4,0.8-0.3,1.3
		c1.5,7.5,2.4,14.7,2.8,22.3H750c-1,0-1.8,0.8-1.8,1.8v4.6c0,1,0.8,1.8,1.8,1.8h22c0,1.1,0,2.2,0,3.1c0,6.7-0.3,12.3-1,18.5
		c-0.1,0.5,0.1,1,0.5,1.4c0.3,0.4,0.7,0.6,1.3,0.6h4.8c1,0,1.7-0.6,1.8-1.6c0.6-6.3,1-11.9,1-18.7c0-1,0-2,0-3.1h22.2
		c1,0,1.8-0.8,1.8-1.8v-4.6C804.2,188.9,803.4,188.1,802.3,188.1"/>
	<path class="st1" d="M502.2,125.5c-0.3,0.5-0.4,1-0.2,1.5s0.6,1,1.1,1.1l4,1.4c0.2,0.1,0.5,0.2,0.7,0.2c0.7,0,1.4-0.4,1.8-1
		c13.1-19.3,31-35.5,51.6-46.6c21.3-11.5,45.3-17.5,69.7-17.5c29.4,0,57.6,8.7,81.9,25.1c23.6,16,42,38.2,53.1,64.4
		c0.3,0.8,1.1,1.3,1.9,1.3h4.8c0.5,0,1-0.3,1.4-0.7c0.3-0.5,0.4-1,0.2-1.5c-11.5-28.2-30.8-52.2-55.9-69.4
		c-25.7-17.6-55.9-27-87.3-27C579.1,56.6,530.9,82.4,502.2,125.5"/>
</g>
<g>
	<path class="st1" d="M939.3,117.4c-5.1,0-10.7,0-15.8,0c0,21.5-0.1,35.4-0.1,57c-6.8-21-13.6-34.9-20.4-57c-5.8,0-9.4,0-15.2,0
		c0,33.6,0,67.1,0,100.7c5.1-0.7,10.6-1.4,15.8-2.1c0-21.1,0-34,0.1-55c7.1,20.8,11.4,33,18.4,52.7c5.5-0.6,11.5-1.4,17.1-1.9
		C939.3,180.3,939.3,148.9,939.3,117.4"/>
	<path class="st1" d="M998.4,117.4c-14.7,0-29.2,0-43.9,0c-0.1,31-0.2,62-0.2,93c14.7-1.3,29.3-2.4,44-3.3c0-4.5,0-11.1,0-15.6
		c-9.5,0.6-18.7,1.2-28.1,1.8c0-8.3,0-15.2,0.1-23.5c7-0.2,14.3,0,21.3-0.2c0-4.5,0-11.1,0-15.7c-7.1,0.2-14.5,0.2-21.3,0.3
		c0-8.3,0-12.9,0.1-21.2c4.4-0.1,8.7-0.1,12.9-0.1c0.8,0,1.5,0,2.3,0s1.5,0,2.3,0c3.6,0,7.1,0,10.8,0
		C998.6,128.5,998.4,122,998.4,117.4"/>
	<path class="st1" d="M1057.5,117.5c-16,0-32.7,0-48.7,0c0,4.5,0,11,0,15.5c0.7,0,1.4,0,2.1,0c2.1,0,4.2,0,6.3,0.1
		c2.1,0,4.2,0.1,6.3,0.1c0.5,0,1.1,0,1.6,0c0,25-0.1,47.8-0.1,72.8c5.1-0.2,10.7-0.4,15.8-0.5c0-24.9,0.1-47.5,0.1-72.3
		c5.5,0,11.1,0,16.6-0.1C1057.5,128.5,1057.5,121.9,1057.5,117.5"/>
	<path class="st1" d="M1111.7,117.4c-14.7,0-29.3,0-44,0c0,29.2,0,58.3,0,87.6c1.7,0,3.4,0,5.1,0c3.5,0,7.1,0,10.5,0.1
		c0-12.4,0-23.7,0-36c0.8,0,1.7,0,2.7,0c2,0,4.1,0,6.2,0s4.2,0,6.2,0c2.1,0,4.3,0,6.3,0c0-4.5,0-11.1,0-15.5c-1.9,0-3.9,0-6,0
		c-2.2,0-4.4,0-6.6,0s-4.4,0-6.5,0c-0.8,0-1.6,0-2.4,0c0-8,0-12.5,0-20.4c1.7,0,3.4,0,5.1,0s3.4,0,5.2,0c1.7,0,3.5,0,5.2,0
		c4.2,0,8.5,0,12.8,0C1111.7,128.6,1111.7,121.8,1111.7,117.4"/>
	<path class="st1" d="M1121.9,117.5c0.1,29.5-0.1,58.9-0.1,88.4c14,0.5,28.8,1.1,42.9,2c0-4.5,0-11.1,0-15.6
		c-8.9-0.5-18.1-1.2-27.1-1.5c-0.1-25.2,0.1-48.1,0.1-73.4C1132.7,117.5,1127.1,117.5,1121.9,117.5"/>
	<path class="st1" d="M1177.7,117.5c0.1,30.5,0.2,60.9,0.2,91.4c5.1,0.4,10.4,0.8,15.6,1.3c0-30.9,0.1-61.8,0-92.7
		C1188.4,117.5,1182.8,117.5,1177.7,117.5"/>
	<path class="st1" d="M1207.1,117.5c6.3,15.4,12.1,30.9,18.6,47.2c-6.7,15.7-13.5,31.3-20.1,46.4c5.5,0.5,11.3,1.3,16.8,1.9
		c3.9-9.7,7.6-17.1,11.5-27.1c3.9,10.6,7.6,18.8,11.4,29.8c5.5,0.7,12.6,1.7,18.1,2.5c-6.7-17.9-13.9-36.5-20.7-53.3
		c6.7-15.8,13.5-31,20.4-47.5c-5.7,0-11.5,0-17.2,0c-4.3,10.3-7.2,16.8-11.3,26.6c-3.8-10.2-6.4-16.7-10.3-26.6
		C1218.7,117.5,1212.8,117.5,1207.1,117.5"/>
</g>
<g id="XMLID_1_">
	<path id="XMLID_84_" class="st1" d="M2661.9,189.1c-0.9,0.6-0.4,1.6-0.6,2.5c-1.4,6.9-5.4,11-12.2,12.6c-4.3,1-8.7,1-12.8-0.2
		c-6.5-1.8-9.6-6.8-11.2-12.8c-0.6-2.2-1-4.6-1.1-6.8c-0.4-10.7-1.4-21.4,1-32c2.1-9.4,7.4-13.4,16.9-13.9c2.1-0.1,4.2-0.1,6.2,0.4
		c7.4,1.4,11.3,5.4,12.7,13.2c0.4,1.5,0.1,3,0.9,4.2c0,6.9,0,13.9,0,20.8c-7.6-0.1-15.4-0.1-23.1-0.2c-0.6,0-1.1,0.2-1.1,1
		c0.1,4.7-0.2,9.4,0.9,13.9c0.6,2.5,2.2,3.7,4.7,3.7s4.1-1,4.8-3.6c0.6-1.8,0.9-3.8,0.9-5.8c0-1.1,0.2-1.7,1.6-1.6
		c3.3,0.4,6.6,0.5,10,0.5c0.9,0,1,0.6,1.6,1C2661.9,186.6,2661.9,187.9,2661.9,189.1z M2637.7,160.7c0,1.8,0,3.8,0,6
		c0,0.9,0.1,1.5,1.1,1.4c2.8-0.1,5.5,0,8.4,0c0.6,0,1.1,0,1.1-0.9c-0.1-5,0.2-10.1-0.9-15.3c-0.6-2.6-2.2-3.7-4.8-3.6
		c-2.2,0-3.4,1.1-4.2,3.6C2637.8,154.6,2638.1,157.5,2637.7,160.7z"/>
	<path id="XMLID_79_" class="st1" d="M2590.6,146.4c2.6-4.2,5.7-6.8,10-7.8c6.4-1.6,11.9,1.2,14.3,7.4c1.5,3.6,2,7.5,2.1,11.3
		c0.5,10.2,0.9,20.5-0.4,30.8c-0.4,3-1,5.9-2.2,8.7c-1.8,4.3-4.8,7.4-9.7,8c-5.4,0.5-10.1-1.1-13.4-5.5c-0.4-0.4-0.6-0.9-1-1.5
		c-0.2,0.6-0.4,1-0.5,1.4c-1.2,4.8-1.2,4.8-6,4.8c-1.7,0-3.4-0.1-5.2,0c-1.6,0.1-2-0.5-2-2c0.1-13.8,0-27.4,0-41.1
		c0-15.3,0.1-30.6-0.1-45.9c0-2.1,0.6-2.5,2.5-2.3c3.1,0.2,6.2,0.2,9.2,0c2.2-0.2,2.5,0.6,2.5,2.6
		C2590.6,125.4,2590.6,135.4,2590.6,146.4z M2602.5,172.4c0-3.6,0.1-7.3,0-10.7c-0.1-3.3-0.4-6.8-1.4-10.1c-1-3.1-3.9-4.1-6.8-2.2
		c-2.2,1.5-3.7,3.6-3.7,6.5c0,11.1,0,22.1,0,33.2c0,2.7,1.5,4.6,4.1,4.9c3,0.6,4.8-0.4,6-3.1c0.4-1,0.7-2.1,0.9-3.2
		C2602.5,182.7,2602.5,177.5,2602.5,172.4z"/>
	<path id="XMLID_78_" class="st1" d="M2480.8,195.7c-2.6,4.7-5.7,7.6-10.3,8.7c-8.4,2-14.6-2.2-15.9-10.7c-0.4-2.2-0.5-4.7-0.5-6.9
		c0-15.1,0-30.1,0-45.2c0-1.7,0.4-2.2,2.2-2.2c3.6,0.2,7,0.1,10.6,0c1.6-0.1,2,0.5,2,2c-0.1,14.5,0,29.3,0,43.8
		c0,2.2-0.1,4.6,0.6,6.8c0.6,1.7,1.6,2.6,3.4,2.6c3.4,0,6-2.5,6-6c0-15.6,0-31.4,0-47c0-1.7,0.5-2.1,2.1-2.1c3.6,0.1,7.4,0.1,11.1,0
		c1.4,0,1.6,0.4,1.6,1.6c0,20.4,0,40.9,0,61.2c0,1-0.2,1.6-1.5,1.6c-3-0.1-5.9-0.1-8.7,0c-1.1,0-1.4-0.4-1.6-1.4
		C2481.6,200.5,2481.3,198.4,2480.8,195.7z"/>
	<path id="XMLID_77_" class="st1" d="M2555.3,195.7c-2.3,4.2-5,7.3-9.4,8.6c-9,3-16.1-2-17.1-11.3c-0.4-4.2-0.4-8.4-0.4-12.7
		c0-12.8,0-25.8-0.1-38.6c0-1.8,0.5-2.2,2.2-2.2c3.6,0.1,7,0.1,10.6,0c1.6-0.1,2,0.4,2,2c-0.1,14.8,0,29.5,0,44.3
		c0,2-0.1,3.9,0.5,5.8c0.6,2.3,1.8,3.2,4.3,3c3.2-0.4,5.4-2.6,5.4-5.8c0-15.6,0-31.4,0-47c0-1.7,0.4-2.3,2.2-2.2
		c3.6,0.2,7.3,0.1,10.7,0c1.4,0,1.8,0.4,1.8,1.7c-0.1,20.4-0.1,40.6,0,60.9c0,1.4-0.4,1.8-1.7,1.7c-2.8-0.1-5.5-0.1-8.4,0
		c-1,0-1.6-0.2-1.7-1.5C2556,200.4,2555.5,198.4,2555.3,195.7z"/>
	<path id="XMLID_74_" class="st1" d="M2446.9,173.3c-0.1,4.4,0,10.3-1.1,16.2c-2.1,10.7-8,15.5-18.9,15.4c-2.2,0-4.7-0.2-6.9-0.7
		c-7.1-1.6-10.5-6.6-11.9-13.3c-0.6-3-1-5.8-1-8.7c-0.4-9.5-0.9-19.1,1-28.4c2.3-12.4,10.6-16.5,22.1-15.3c9.1,0.9,14.2,5.5,16.1,18
		C2446.9,161.5,2446.9,166.7,2446.9,173.3z M2421.4,171.6c0,4.2-0.1,8.2,0,12.4c0.1,2.8,0.2,5.5,1.2,8.1c0.6,1.7,2,2.8,3.9,3
		c2,0.1,3.3-1,4.1-2.7c0.6-1.5,1-3,1-4.6c0.7-9.6,0.4-19.3,0.4-28.9c0-2.6-0.4-5.3-1.4-7.6c-0.7-1.7-2.1-2.7-4.1-2.7s-3.3,1-3.9,2.8
		c-0.6,1.5-0.9,3-1,4.3C2421,160.8,2421.4,166.2,2421.4,171.6z"/>
	<path id="XMLID_73_" class="st1" d="M2362.8,115.8c4.6,0,8.9,0,13.3,0c1.2,0,1.2,0.9,1.4,1.6c3,13.9,6.2,27.7,8.7,41.7
		c0,0.1,0.1,0.4,0.2,0.5c1.5-7,3-13.9,4.3-20.8c1.6-7.3,3.3-14.4,4.8-21.7c0.2-1,0.4-1.5,1.5-1.5c4.3,0.1,8.7,0,13.3,0
		c-1.5,5-2.8,10.1-4.2,14.8c-4.1,14.4-8.1,28.8-12.2,43.3c-0.4,1-0.4,2.1-0.4,3.1c0,8.1-0.1,16.4,0,24.5c0,1.8-0.4,2.5-2.2,2.3
		c-3.3-0.2-6.6-0.1-10,0c-1.7,0.1-2.2-0.4-2.2-2.2c0.1-4.8-0.2-9.6,0.1-14.4c0.5-8-1-15.5-3.2-23.1c-4.7-15.6-8.7-31.4-13.2-47.2
		C2363.1,116.6,2362.9,116.3,2362.8,115.8z"/>
	<path id="XMLID_72_" class="st1" d="M2518.5,165.7c0,11.9,0,24,0,35.9c0,1.8-0.5,2.2-2.2,2.2c-3.3-0.1-6.4-0.2-9.7,0
		c-2,0.1-2.3-0.5-2.3-2.2c0.1-20.1,0-40.2,0-60.3c0-3.9-0.1-8,0-11.9c0-1.5-0.4-2-1.8-2c-3.6,0.1-7.3,0-10.7,0.1
		c-1.4,0-2-0.2-1.8-1.7c0.1-2.8,0.1-5.5,0-8.4c0-1.4,0.4-1.8,1.7-1.8c13.2,0.1,26.3,0.1,39.5,0c1.5,0,1.7,0.4,1.7,1.7
		c-0.1,3-0.1,5.7,0,8.6c0,1.1-0.4,1.6-1.6,1.6c-3.4-0.1-6.9,0.1-10.3-0.1c-2-0.1-2.6,0.4-2.6,2.5
		C2518.6,141.8,2518.5,153.8,2518.5,165.7z"/>
	<path class="st1" d="M2346.2,129.3c-1.7-11.4-7.6-17.1-19.2-18.5c-8.7-1-17.1-1.4-25.8-1.7c-0.7-0.1-1.7,0.4-2.2-0.5
		c-16.5,0-33,0-49.5-0.1c-0.6,1-1.5,0.5-2.2,0.5c-8.5,0.4-16.9,0.6-25.3,1.7c-10.6,1.4-16.5,7-18.3,17.5c-1,5.7-1.4,11.3-1.8,17
		c-0.1,0.6,0.4,1.6-0.5,2c0,8.5,0,16.7,0,25.2c0.9,0.5,0.4,1.4,0.5,2c0.6,6.4,1,12.8,2.2,19.2c1.8,8,7.4,13.3,15.4,14.8
		c3.6,0.6,7.4,1,11.2,1.4c16.5,1,32.9,1.6,49.5,1.4c16.1-0.2,32.2-0.4,48.2-2.2c9.8-1.1,15.8-6.8,17.6-16.5c1.1-5.9,1.6-11.9,2-17.8
		C2348.6,159.3,2348.6,144.3,2346.2,129.3z M2298.3,159.9c-12.7,7.4-25.2,14.5-38,21.9v-0.1c0-14.6,0-28.9,0-43.7
		C2273,145.3,2285.4,152.4,2298.3,159.9C2298.3,159.8,2298.3,159.8,2298.3,159.9L2298.3,159.9z"/>
</g>
<g>
	<path class="st1" d="M196.3,158.1c-0.9-0.4-2.2-1.9,0.1-6.3l5.4-11.3c0.2-0.3-0.2-0.8-0.5-0.5l-4.7,4.7c-2.2,2.3-6,8.9-6.8,10.1
		l-5.7,9.5c0.6,0,1,0.6,0.7,1.1l-5.2,8.8c-1.3,2.2,1,3.7,1.3,3.2c8.2-13.3,13-12.2,13-12.2l2.7-6.4
		C196.8,158.6,196.6,158.2,196.3,158.1"/>
	<path class="st1" d="M215,47.2c-47.1,0-85.2,38.1-85.2,85.2c0,18.9,6.2,36.4,16.7,50.6c3.6-1.5,5.6-3.9,7-5.6l15.9-20.3
		c0.3-0.4,0.8-0.8,1.3-1l2.4-1L199,122l3.8-3l7.8-10.8c0.2-0.3,0.4-0.5,0.7-0.7l3.4-2.5c0.8-0.6,2-0.6,2.8,0l4.1,2.9
		c2.2,1.5,4,3.6,5.2,6l16.5,29c0.4,0.6,0.6,0.9,1.3,1.2c3.2,1.6,5.2,1.9,9.4,6.5c2,2.1,10.6,11.8,22.7,26.9c1.7,2.3,3.8,4.2,6.8,5.5
		c10.4-14.1,16.6-31.6,16.6-50.5C300.2,85.4,262.1,47.2,215,47.2 M152.8,137.2l-5.5-1.8l-3.4,4.7v-5.8l-5.5-1.8l5.5-1.8v-5.8
		l3.4,4.7l5.5-1.8l-3.4,4.7L152.8,137.2z M151.5,156.2l-1.8,5.5l-1.8-5.5h-5.8l4.7-3.4l-1.8-5.5l4.7,3.4l4.7-3.4l-1.8,5.5l4.7,3.4
		H151.5z M152.6,112.2l1.8,5.5l-4.7-3.4l-4.7,3.4l1.8-5.5l-4.7-3.4h5.8l1.8-5.5l1.8,5.5h5.8L152.6,112.2z M161.9,99.7l-3.4-4.7
		l-5.5,1.8l3.4-4.7l-3.4-4.7l5.5,1.8l3.4-4.7v5.8l5.5,1.8l-5.5,1.8V99.7z M176.4,79.3l-1.8,5.5l-1.8-5.5H167l4.7-3.4l-1.8-5.5
		l4.7,3.4l4.7-3.4l-1.8,5.5l4.7,3.4H176.4z M194.7,70l-3.4,4.7v-5.8l-5.5-1.8l5.5-1.8v-5.8l3.4,4.7l5.5-1.8l-3.4,4.7l3.4,4.7
		L194.7,70z M217.9,64.7l1.8,5.5l-4.7-3.4l-4.7,3.4l1.8-5.5l-4.7-3.4h5.8l1.8-5.5l1.8,5.5h5.8L217.9,64.7z M238.7,68.9v5.8l-3.4-4.7
		l-5.5,1.8l3.4-4.7l-3.4-4.7l5.5,1.8l3.4-4.7v5.8l5.5,1.8L238.7,68.9z M277.2,127.8l5.5,1.8l3.4-4.7v5.8l5.5,1.8l-5.5,1.8v5.8
		l-3.4-4.7l-5.5,1.8l3.4-4.7L277.2,127.8z M255.4,84.9l-1.8-5.5h-5.8l4.7-3.4l-1.8-5.5l4.7,3.4l4.7-3.4l-1.8,5.5l4.7,3.4h-5.8
		L255.4,84.9z M268.1,99.7v-5.8l-5.5-1.8l5.5-1.8v-5.8l3.4,4.7l5.5-1.8l-3.4,4.7l3.4,4.7l-5.5-1.8L268.1,99.7z M278.5,108.8l1.8-5.5
		l1.8,5.5h5.8l-4.7,3.4l1.8,5.5l-4.7-3.4l-4.7,3.4l1.8-5.5l-4.7-3.4H278.5z M282.1,156.2l-1.8,5.5l-1.8-5.5h-5.8l4.7-3.4l-1.8-5.5
		l4.7,3.4l4.7-3.4l-1.8,5.5l4.7,3.4H282.1z"/>
	<path class="st1" d="M245.9,181.7c0.4-0.6,1.1-2.2-0.2-5.3l-3.8-10.1c-0.5-1.3,0.6-2.1,1.4-1.2c0,0,7.1,8.2,9,11.6l3.5,5.8
		c3,0.2,11.4,0.4,19.4,0.4c-0.8-0.8-1.5-1.6-2.2-2.6c-13.7-17-22.4-26.4-22.5-26.5c-2.8-3-4.1-3.6-6.2-4.6c-0.3-0.1-0.6-0.3-1-0.5
		v2.6c0,0.3-0.4,0.5-0.6,0.2l-20.2-35.4l-0.1-0.1c-0.8-1.7-2.1-3.1-3.6-4.2l-2-1.4l-9.6,22.2c1.5,0,2.5,1.5,1.9,2.9l-8.9,20.5h8.2
		c3.2,0,6.3,0.6,9.2,1.8l2.1,0.9c0,0-6.5,13.3-6.5,20.4c0,1.3,0.2,2.6,0.5,3.8h14.9l-0.7-4.2C228.1,178.8,237.1,180.8,245.9,181.7"
		/>
	<path class="st1" d="M130.6,203.3c0-13.7-14.5-20.3-31.8-20.3c-18.5,0-35.5,8.2-41.7,20.9c-1.7,3.4-2.6,7.1-2.6,10.9
		c-0.1,3.3,0.8,6.5,2.6,9.3c2.7,3.9,7.4,6.4,14.4,6.4c8.6,0,15.4-4.7,15.4-12.9c0,0,0.1-2.3-2.5-2.3c-2.2,0-2.7,1.5-2.7,2.3
		c0.3,6.4-3.5,11.6-10.3,11.6c-7.6,0-10.8-6.5-10.8-13.4c0-14.2,10.7-23.6,21.8-27.6c5.2-2,10.7-2.9,16.3-2.9
		c12.6,0,22.9,4.8,22.9,17.8c0,10.8-9.1,20-20,20.8l0.4-1.5c2.2-7.9,5-16.6,9.4-23.1c0.3-0.4,0.7-1,1.2-1.7l-0.6-0.8
		c-1,0.6-1.8,1.2-2.7,1.9c-20.8,16.3-21.5,62-49.2,62c-1,0-1.9-0.1-2.9-0.2c-5.8-1-8.8-4.8-8.8-10.2c0-1.1,0.4-2.5,0.4-3.4
		c0.1-1.5-1.2-2.9-2.7-2.9h-0.3c-2.5,0-3.5,2-3.6,4.8c-0.2,8.1,5.8,12.8,15,13.7c1,0.1,2,0.1,3.1,0.1c21.7,0,34.9-16.4,40.6-36.3
		c2.9-0.3,5.7-1,8.4-1.8C119.2,221.9,130.6,215.2,130.6,203.3"/>
	<path class="st1" d="M336.9,208.1h-7.6l-1.7,4l-3,6.7H321l-1.1,2.3h3.7l-4.4,9.8c-3.2,6.9-8.1,13.7-11,13.7c-0.6,0-1-0.3-1-0.9
		c0-0.6,0.2-1.2,0.9-3c0.9-2.1,2.4-5.1,3.4-7.4c1.6-3.2,4.1-8.3,4.1-10.7c0-2.5-1.6-4.4-4.7-4.4c-3.5,0-6.7,2.1-9.6,5.1l1.9-4.6H296
		l-5.8,13.3c-2.4,4.7-7.1,12.5-10.1,12.5c-0.6,0-0.9-0.4-0.9-1c0.1-0.6,0.2-1.1,0.4-1.7c0.3-0.6,3.7-8.8,3.7-8.8l6.4-14.5H282
		l-6.2,14.2c-1.9,4.4-6.7,11.8-9.8,11.8c-0.5,0.1-1-0.3-1.1-0.9v-0.3c0-0.8,0.6-2.2,1-3.2l3.2-7.1l6.7-14.5h-7.7l-1.5,3.3
		c-1.1,2.2-3,4.8-6.1,4.8c-1.5,0-2.2-0.6-2.5-1.1c-0.4-4.9-3.6-7.5-8.1-7.5c-6.4,0-10.9,3.7-13.9,8.3c-2,3.2-3.5,6.5-4.6,10.1
		c-2.7,4.5-5.6,8-7.9,8c-0.6,0-1-0.3-1-1.1s0.8-2.5,1-3.1l5-10.7c1.4-3.3,2.4-5.5,2.4-7.6c0-2.3-1.6-3.9-4.2-3.9
		c-3.6,0-7.6,2.1-10.7,5.5c0.1-0.6,0.1-1.1,0.1-1.7c0-2.5-1.3-3.9-3.9-3.9c-3.3,0-6.7,2-9.8,5.5l2-5h-7l-5.9,13.3
		c-2.8,6.3-7.3,12.5-9.8,12.5c-0.6,0-1-0.3-1-1.1c0-1.2,1.3-4.2,1.8-5.4l7.8-17.7c0.6-1.3-3.2-2.2-7.9-2.2c-4.9,0-9.9,2.4-13.6,5.5
		c-2.6,2.2-4.5,3.2-5.5,3.2c-0.5,0-0.7-0.3-0.7-0.6c0-1.1,2.6-4.1,2.6-6.5c0-1.1-0.6-1.8-2-1.8c-2.8,0-6.1,2.7-8.5,5.5l2-4.9h-6.9
		l-5.9,13.3c-2.8,6.3-7.4,12.8-10,12.8c-0.6,0-1-0.3-1-1.1c0-1.2,1.3-4.1,2-5.7l7.8-17.8c0.6-1.3-3.2-2.2-7.9-2.2
		c-7.1,0-13.9,4.8-17.5,9.7c-4,5.3-6.7,10.9-6.8,15.4c-0.1,3.7,1.8,6,5.7,6c4.3,0,7.7-3.4,9.7-5.9c-0.1,0.5-0.2,1-0.3,1.5
		c0,2.5,1,4.4,4.1,4.4c2.7,0,6.4-2.3,9.3-5.9l-2.4,5.4h7.4l7.3-16.6c2.4-5.4,5.1-8.2,5.9-8.2c0.3,0,0.4,0.1,0.4,0.3
		c0,0.6-1.1,2.1-1.1,3.5s0.8,2.5,2.8,2.5c1.6,0,3.4-0.8,5-1.8c-3.7,5.1-6.3,10.4-6.3,14.8c-0.1,3.7,1.8,6,5.7,6c4,0,7.8-3.8,9.8-6.4
		c-0.1,0.6-0.1,1.1-0.1,1.8c0,2.5,1.4,4.6,4.3,4.6c3.2,0,5.7-2,8.9-5.8l-2.4,5.3h7.6l7-15.8c3-6.9,7.2-10.5,9.2-10.5
		c0.5-0.1,1,0.3,1,0.8v0.2c-0.1,0.8-0.3,1.5-0.6,2.2l-10,23.2h7.8l7.1-16.1c3-6.9,6.4-10.3,9-10.3c0.8,0,1.1,0.4,1.1,1.2
		c-0.1,0.9-0.3,1.8-0.7,2.5l-6.9,14.6c-0.6,1.4-1,2.9-1.1,4.4c0,2.2,1.2,4.2,4.6,4.2c4.4,0,7.8-3.4,11.6-8.4v1.1
		c0.3,4,2.5,7.5,8.5,7.5c7,0,12.6-4.8,16.1-12.5c1.3-2.7,2.2-5.6,2.5-8.6c0.8,0.4,1.7,0.6,2.5,0.5c1.1,0,2.3-0.3,3.3-0.8l-1.2,2.6
		c-1.4,2.9-2.9,6.2-4.1,8.9c-0.8,1.6-1.2,3.4-1.3,5.1c0,2.7,1.5,4.7,4.6,4.7s7.4-2.9,10.4-7.1h0.1c-0.2,0.8-0.3,1.7-0.3,2.6
		c0,2.3,0.7,4.4,3.9,4.4c3.7,0,6.5-2.7,9.3-6l-2.4,5.3h7.7l6.2-14c3.5-7.9,7-12.6,10.2-12.6c0.6,0,1,0.4,1.1,1v0.2
		c0,1.3-1.9,5-3.6,8.6c-1.6,3.3-2.8,5.8-3.6,7.8c-0.8,1.7-1.2,3.4-1.3,5.3c0,2.4,1.3,4.3,4.3,4.3c4.4,0,9-4.3,11.4-7.6
		c-0.6,1.6-0.8,3.2-0.9,4.8c0,4.4,2.7,6.7,6.4,6.7c2.5,0,4.9-0.8,6.9-2.3c2.9-2,5.3-5.1,7.2-7.9l-1.3-1.3c-1.8,2.6-3.9,5.1-6,6.6
		c-1.1,1-2.5,1.5-3.9,1.5c-1.6,0-2.6-0.8-2.6-2.9c0-2,1-4.8,2.4-8.5c0.1-0.1,2.2-4.8,4.1-9.3c1.7-3.8,3.3-7.5,3.6-8.3h5l1-2.3h-5
		L336.9,208.1z M120.2,244.7c-1.1,0-1.8-0.4-1.8-1.8c0.1-3.7,3.2-10.4,7.1-15.8c2.7-3.7,6.3-6.4,10.1-6.4l-4.8,10.8
		C127.1,239.7,123.1,244.7,120.2,244.7 M167.7,244.7c-1.1,0-1.8-0.4-1.9-1.8c0.1-3.7,3.2-10.4,7.1-15.8c2.7-3.7,6.3-6.4,10.1-6.4
		l-4.8,10.8C174.5,239.9,170.7,244.7,167.7,244.7 M252.1,223.7c-0.2,4.1-3.8,14.1-8.1,20.1c-1.7,2.4-3.2,3.1-4.4,3.1
		c-1.8,0-2.3-1.5-2-3.6c0.4-3.7,3.5-12.5,7.8-18.6c2-2.7,3.3-3.9,4.8-3.9C251.7,220.8,252.2,222.1,252.1,223.7"/>
	<polygon class="st1" points="370.7,218.8 377.7,202.7 369.4,202.7 362.4,218.8 344.8,218.8 341.9,225.6 359.5,225.6 352.5,241.8 
		360.7,241.8 367.7,225.6 385.3,225.6 388.3,218.8 	"/>
</g>
<g>
	<path class="st2" d="M2060.1,197h-136.4c-20.8,0-37.6-17.1-37.6-38.2v67.9c0,21.1,16.9,38.2,37.6,38.2h136.4
		c20.8,0,37.6-17.1,37.6-38.2v-67.9C2097.7,179.9,2080.9,197,2060.1,197"/>
	<g>
		<path class="st3" d="M2046.6,112.1c-2.3-2.2-5.8-2.7-8.8-2c-2.1,0.5-3.9,2-4.9,3.9c-1.7,2.9-1.9,6.3-1.7,9.6
			c0.2,3.1,0.8,6.3,2.9,8.7c2.2,2.6,5.9,3.2,9.1,2.6c2.5-0.5,4.5-2.4,5.6-4.7c1.4-2.9,1.5-6.3,1.3-9.4
			C2049.7,117.7,2048.9,114.3,2046.6,112.1z"/>
		<path class="st1" d="M2061,50h-138.5c-21.1,0-38.2,17.1-38.2,38.2v70.6c0,21.1,17.1,38.2,38.2,38.2H2061
			c21.1,0,38.2-17.1,38.2-38.2V88.2C2099.2,67.1,2082.1,50,2061,50z M2023.1,88.4c1.5-3.4,4.8-5.6,8-7.2c5.8-2.9,12.7-3,18.7-0.6
			c3.4,1.4,6.7,3.5,8.9,6.6c1.8,2.7,1.4,6,1.4,9c-1.8-1.9-3.6-3.9-5.8-5.3c-4.4-3-9.9-4.2-15.2-3.6c-6.4,0.5-12.7,3.6-16.6,8.8
			C2022.4,93.5,2022,90.8,2023.1,88.4z M1946.6,140.5c-1.3,2.2-4,3.1-6.4,3.3c-3.3,0.3-6.8-0.1-9.9-1.4c-3-1.3-5.4-3.9-6.5-7
			c-0.9-2.5-1.2-5.1-1.2-7.8c0-8.2,0-16.5,0-24.7c0-2.1,0.3-4.3,1.5-6.1c1.2-1.7,2.6-3.5,4.5-4.4c1.4-0.7,2.9-0.5,4.4-0.5
			c0,3.2,0,6.3,0,9.5c4.8,0,9.7,0,14.5,0c-0.1,1.8,0.1,3.5-0.1,5.3c-0.6,2.5-3.2,3.9-5.6,4c-2.9,0-5.9,0-8.8,0c0,5.7,0,11.3,0,17
			c0,2.2,0.6,4.7,2.5,6c2,1.3,4.4,1.1,6.7,0.9c1.9-0.1,3.6-0.7,5.3-1.5C1947.4,135.6,1948,138.3,1946.6,140.5z M1958.9,86.4
			c3.1-0.8,6.5,1.2,7.3,4.3c1.2,3.7-1.9,7.8-5.8,7.8c-3.3,0.2-6.3-2.8-6.2-6.1C1954.2,89.6,1956.2,87,1958.9,86.4z M1972.9,141.8
			c-1,1.5-2.9,2-4.6,2c-3.4,0.1-7.2-0.6-9.7-3.1c-2.7-2.6-3.5-6.4-3.5-10c0-9.5,0-18.9,0-28.4c2.4,0.1,5.1-0.3,7.3,1
			c2.1,1.2,3.1,3.7,3.1,6.1c0,5.6,0,11.2,0,16.8c0,1.8-0.1,3.7,0.2,5.5c0.2,1.1,0.8,2.3,1.9,2.8c1.9,1,4.2,0.8,6.3,0.8
			C1973.9,137.5,1974.2,139.9,1972.9,141.8z M1977.7,130c-1.5-5.9-0.9-12.5,2.2-17.8c2.7-4.8,7.5-8.2,12.7-9.9
			c4.4-1.4,9.1-1.9,13.6-1.1c3.2,0.6,6.5,2.3,7.9,5.3c1.2,2.2,0.7,4.7,0.8,7c-0.4,0-0.9,0-1.3,0c-3.5-2.6-8.1-3.5-12.4-3.6
			c-4.1-0.1-8.3,1.5-10.9,4.8c-2,2.4-2.9,5.7-2.7,8.8c0.1,3.5,1,7.2,3.6,9.7c2.7,2.8,6.9,3.6,10.7,3.4c1.4-0.1,3.4-0.5,3.6-2.2
			c0.2-3.8,0.1-7.6-0.7-11.3c2,0.1,4-0.1,6,0.1c2.6,0.2,5,2.5,4.9,5.2c-0.2,3.8,0.6,7.8-1.1,11.3c-1.5,3.2-4.9,4.9-8.2,5.5
			c-6.3,1.2-13.2,0.7-18.8-2.6C1982.8,139.9,1979.1,135.3,1977.7,130z M2044,161.8c-1.5,4.8-5.3,8.3-9.3,10.9
			c-5.6,3.7-12.3,5.8-19,5.5c-8.6-0.3-17.2-4-23.1-10.4c-1.6-1.8-3-3.8-3.7-6.2c-1.1-3.2-0.8-6.7-0.7-10c3.1,4,6.6,7.7,10.9,10.4
			c5.2,3.3,11.4,4.9,17.6,4.6c8.1-0.1,16.3-3,22.4-8.4c2.3-1.8,4-4.2,5.7-6.5C2044.9,155.1,2045.2,158.6,2044,161.8z M2057.9,134.5
			c-2.4,4.4-6.6,7.8-11.4,9.1c-5.9,1.6-12.6,1-17.7-2.6c-4.7-3.3-7.5-8.8-8.3-14.4c-0.6-5.4,0.1-11,2.6-15.8
			c1.7-3.3,4.3-6.1,7.6-7.8c2.7-1.5,5.8-2.2,8.9-2.4c4.3-0.3,8.7,0.7,12.3,3.1c5,3.3,8.1,9.1,8.7,15
			C2061.3,124.1,2060.6,129.7,2057.9,134.5z"/>
	</g>
	<g>
		<path class="st1" d="M1929.4,237.7c0-1.5-0.6-2.6-1.7-3.5c-1.1-0.8-3.1-1.5-5.9-2.1c-2.8-0.6-5-1.3-6.6-2.1
			c-1.6-0.8-2.8-1.8-3.6-3c-0.8-1.1-1.2-2.5-1.2-4.1c0-2.6,1.1-4.9,3.3-6.7c2.2-1.8,5.1-2.7,8.6-2.7c3.6,0,6.6,0.9,8.9,2.8
			c2.3,1.9,3.4,4.3,3.4,7.2h-5.5c0-1.5-0.6-2.8-1.9-3.9c-1.3-1.1-2.9-1.6-4.8-1.6c-2,0-3.6,0.4-4.7,1.3c-1.1,0.9-1.7,2-1.7,3.4
			c0,1.3,0.5,2.3,1.6,3c1.1,0.7,2.9,1.3,5.7,1.9c2.7,0.6,5,1.3,6.7,2.2c1.7,0.9,3,1.9,3.8,3.1c0.8,1.2,1.2,2.7,1.2,4.4
			c0,2.9-1.2,5.2-3.5,6.9c-2.3,1.7-5.3,2.6-9,2.6c-2.6,0-4.9-0.5-6.8-1.4c-2-0.9-3.5-2.2-4.7-3.8c-1.1-1.6-1.7-3.4-1.7-5.3h5.5
			c0.1,1.8,0.8,3.3,2.2,4.4c1.4,1.1,3.2,1.6,5.5,1.6c2.1,0,3.8-0.4,5-1.3C1928.8,240.3,1929.4,239.2,1929.4,237.7z"/>
		<path class="st1" d="M1968.1,230.5c0,4.9-1.1,8.8-3.4,11.8c-2.2,3-5.3,4.5-9.1,4.5c-3.9,0-7-1.2-9.2-3.7v15.5h-5.5v-44.6h5
			l0.3,3.6c2.2-2.8,5.4-4.2,9.3-4.2c3.9,0,6.9,1.5,9.2,4.4c2.3,2.9,3.4,7,3.4,12.2V230.5z M1962.6,229.9c0-3.6-0.8-6.5-2.3-8.6
			c-1.5-2.1-3.7-3.2-6.4-3.2c-3.3,0-5.8,1.5-7.5,4.4V238c1.6,2.9,4.2,4.4,7.6,4.4c2.6,0,4.7-1,6.3-3.1
			C1961.8,237.2,1962.6,234,1962.6,229.9z"/>
		<path class="st1" d="M1973,229.9c0-3.2,0.6-6,1.9-8.5c1.2-2.5,3-4.5,5.2-5.8c2.2-1.4,4.7-2.1,7.6-2.1c4.4,0,7.9,1.5,10.6,4.6
			c2.7,3,4.1,7.1,4.1,12.1v0.4c0,3.1-0.6,5.9-1.8,8.4c-1.2,2.5-2.9,4.4-5.1,5.8c-2.2,1.4-4.8,2.1-7.7,2.1c-4.4,0-7.9-1.5-10.6-4.6
			c-2.7-3-4.1-7.1-4.1-12V229.9z M1978.5,230.5c0,3.6,0.8,6.4,2.5,8.6c1.7,2.2,3.9,3.2,6.6,3.2c2.8,0,5-1.1,6.7-3.3
			c1.6-2.2,2.5-5.3,2.5-9.2c0-3.5-0.8-6.4-2.5-8.6c-1.7-2.2-3.9-3.3-6.7-3.3c-2.7,0-4.9,1.1-6.6,3.2
			C1979.4,223.4,1978.5,226.5,1978.5,230.5z"/>
		<path class="st1" d="M2023.5,219c-0.8-0.1-1.7-0.2-2.7-0.2c-3.6,0-6.1,1.5-7.3,4.6v22.8h-5.5v-32.2h5.4l0.1,3.7
			c1.8-2.9,4.4-4.3,7.7-4.3c1.1,0,1.9,0.1,2.4,0.4V219z"/>
		<path class="st1" d="M2038.2,206.3v7.8h6v4.3h-6v20c0,1.3,0.3,2.3,0.8,2.9c0.5,0.6,1.4,1,2.7,1c0.6,0,1.5-0.1,2.6-0.4v4.4
			c-1.4,0.4-2.9,0.6-4.2,0.6c-2.5,0-4.3-0.7-5.6-2.2c-1.2-1.5-1.9-3.6-1.9-6.3v-20h-5.9v-4.3h5.9v-7.8H2038.2z"/>
		<path class="st1" d="M2068.7,237.7c0-1.5-0.6-2.6-1.7-3.5c-1.1-0.8-3.1-1.5-5.9-2.1c-2.8-0.6-5-1.3-6.6-2.1
			c-1.6-0.8-2.8-1.8-3.6-3c-0.8-1.1-1.2-2.5-1.2-4.1c0-2.6,1.1-4.9,3.3-6.7c2.2-1.8,5.1-2.7,8.6-2.7c3.6,0,6.6,0.9,8.9,2.8
			c2.3,1.9,3.4,4.3,3.4,7.2h-5.5c0-1.5-0.6-2.8-1.9-3.9c-1.3-1.1-2.9-1.6-4.8-1.6c-2,0-3.6,0.4-4.7,1.3c-1.1,0.9-1.7,2-1.7,3.4
			c0,1.3,0.5,2.3,1.6,3c1.1,0.7,2.9,1.3,5.7,1.9c2.7,0.6,5,1.3,6.7,2.2c1.7,0.9,3,1.9,3.8,3.1c0.8,1.2,1.2,2.7,1.2,4.4
			c0,2.9-1.2,5.2-3.5,6.9c-2.3,1.7-5.3,2.6-9,2.6c-2.6,0-4.9-0.5-6.8-1.4c-2-0.9-3.5-2.2-4.7-3.8c-1.1-1.6-1.7-3.4-1.7-5.3h5.5
			c0.1,1.8,0.8,3.3,2.2,4.4c1.4,1.1,3.2,1.6,5.5,1.6c2.1,0,3.8-0.4,5-1.3C2068.1,240.3,2068.7,239.2,2068.7,237.7z"/>
	</g>
</g>
</svg>
