<svg width="1900" height="520" xmlns="http://www.w3.org/2000/svg" xml:space="preserve" version="1.1" enable-background="new 0 0 2738 308.8">
 <g class="layer">
  <title>Layer 1</title>
  <rect display="none" y="-222.8" x="-98.4" width="3763.5" stroke="#140000" id="svg_1" height="703.6" fill="#335929" class="st0"/>
  <g id="svg_2">
   <path fill="#FFFFFF" id="svg_3" d="m3737.8,153.6l9.9,19.8l-11.2,0l-8.6,-17.8l-2.9,0l0,17.8l-10.3,0l0,-43.4l15,0c9.1,0 13.7,4.7 13.7,12.9c-0.1,4.9 -2,8.6 -5.6,10.7zm-12.7,-14.5l0,8l3.7,0c2.4,0 3.7,-1.6 3.7,-4s-1.4,-3.9 -3.7,-3.9c0,-0.1 -3.7,-0.1 -3.7,-0.1z" class="st1"/>
   <path fill="#FFFFFF" id="svg_4" d="m3776,163.1l-13.7,0l-3.6,10.3l-10.3,0l15.2,-43.4l11.1,0l16,43.4l-11.1,0l-3.6,-10.3zm-10.7,-8.7l7.6,0l-3.8,-11l-3.8,11z" class="st1"/>
   <path fill="#FFFFFF" id="svg_5" d="m3802.6,130.1c14.4,0 23.1,7.9 23.1,21.6c0,13.5 -8.7,21.8 -23.1,21.8l-9.9,0l0,-43.4l9.9,0l0,0zm0.5,34.2c6.9,0.1 11.7,-4.1 11.7,-12.5c0,-8.3 -4.5,-12.4 -11.7,-12.4l0,24.9z" class="st1"/>
   <path fill="#FFFFFF" id="svg_6" d="m3839.9,173.4l-10.4,0l0,-43.4l10.4,0l0,43.4z" class="st1"/>
   <path fill="#FFFFFF" id="svg_7" d="m3866.1,129.2c14.2,0 23,9.7 23,22.4s-8.7,22.6 -22.7,22.6c-14.2,0 -22.9,-9.7 -22.9,-22.4c0.2,-12.6 9.4,-22.6 22.6,-22.6zm0.4,35.2c7.6,0 11.8,-5.6 11.8,-12.8c0,-7.1 -4.4,-12.8 -11.8,-12.8c-7.6,0 -11.8,5.6 -11.8,12.8c-0.1,7.3 4.5,12.8 11.8,12.8z" class="st1"/>
   <path fill="#FFFFFF" id="svg_8" d="m3906.2,145.7l5.5,2.1c5.6,2.3 9,6.1 9,12.5c0,8.7 -6.2,13.9 -15,13.9c-12.4,0 -14.6,-8.1 -14.3,-14.5l9.9,0c-0.2,2.8 0.9,5.5 4.4,5.5c2.4,0 4.1,-1.3 4.1,-3.8c0,-2.4 -1.8,-3.7 -4.5,-4.7c-2.2,-0.8 -4.4,-1.7 -6.8,-2.9c-4.4,-2.3 -6.7,-6.5 -6.7,-11.8c0,-7.6 5.5,-12.9 13.9,-12.9c10.3,0 13.9,5.8 13.5,13.5l-9.7,0c0.1,-2.7 -1.3,-4.5 -3.7,-4.5s-3.6,1.4 -3.6,3.3c0.1,1.9 1.2,3.1 4,4.3z" class="st1"/>
   <path fill="#FFFFFF" id="svg_9" d="m3711.6,183.3l9.9,0l5.1,10.1l5.1,-10.1l9.3,0l-10.4,18.7l0,18.3l-8.9,0l0,-18.1l-10.1,-18.9z" class="st1"/>
   <path fill="#FFFFFF" id="svg_10" d="m3776.1,220.1l-8.4,0l-8.7,-25.9l0,25.9l-8.2,0l0,-36.9l13.3,0l8.2,25l8.2,-25l13.1,0l0,36.9l-8.6,0l0,-25.9l-8.9,25.9z" class="st1"/>
   <path fill="#FFFFFF" id="svg_11" d="m3797.7,205.4l0,-22.2l9,0l0,22.2c0,4.1 1.9,7.1 6.4,7.1c4.2,0 6.2,-2.9 6.2,-7.1l0,-22.1l8.9,0l0,22.2c0,8.9 -5.1,15.5 -15.3,15.5c-10.4,-0.1 -15.2,-6.3 -15.2,-15.6zm23.5,-30.7l-4.1,7.1l-8.2,0l3.9,-7.1l8.4,0z" class="st1"/>
   <path fill="#FFFFFF" id="svg_12" d="m3843.9,196.6l4.6,1.8c4.8,1.9 7.6,5.1 7.6,10.7c0,7.5 -5.3,11.8 -12.7,11.8c-10.6,0 -12.4,-6.8 -12.1,-12.3l8.4,0c-0.2,2.4 0.8,4.6 3.7,4.6c2,0 3.5,-1.2 3.5,-3.3s-1.5,-3.1 -3.9,-4c-1.9,-0.8 -3.7,-1.4 -5.8,-2.4c-3.7,-1.9 -5.7,-5.5 -5.7,-10c0,-6.5 4.7,-10.9 11.8,-10.9c8.7,0 11.8,5 11.4,11.5l-8.2,0c0.1,-2.3 -1.2,-3.9 -3.2,-3.9s-3,1.3 -3,2.8c0.2,1.5 1,2.6 3.6,3.6z" class="st1"/>
   <path fill="#FFFFFF" id="svg_13" d="m3868.2,220.1l-8.9,0l0,-36.9l8.9,0l0,36.9z" class="st1"/>
   <path fill="#FFFFFF" id="svg_14" d="m3903.4,216.1c-3.1,3 -7.1,4.8 -12.3,4.8c-12.3,0 -19.7,-8.3 -19.7,-19.2c0,-10.7 7.6,-19.2 19.5,-19.2c5.6,0 9.6,1.8 12.4,4.4l-5.3,6.7c-1.3,-1.3 -3.8,-2.8 -7.1,-2.8c-6.6,0 -10.3,4.8 -10.3,10.8c0,6.1 4.1,10.8 10.3,10.8c3.1,0 5.5,-1.3 7.1,-2.8l5.4,6.5z" class="st1"/>
   <path fill="#FFFFFF" id="svg_15" d="m3926.8,211.3l-11.6,0l-3,8.8l-8.7,0l12.9,-36.9l9.3,0l13.6,36.9l-9.4,0l-3.1,-8.8zm-9.1,-7.4l6.5,0l-3.3,-9.3l-3.2,9.3z" class="st1"/>
   <g id="svg_16">
    <path fill="#FFFFFF" id="svg_17" d="m3644.6,104.9c-13.7,0 -24.9,11.1 -24.9,24.9l0,48.8c0,13.7 11.1,24.9 24.9,24.9s24.9,-11.1 24.9,-24.7l0,-49c0,-13.8 -11.2,-24.9 -24.9,-24.9zm14.5,73.8c0,7.9 -6.5,14.3 -14.5,14.3c-8.1,0 -14.5,-6.5 -14.5,-14.5l0,-48.8c0,-8 6.5,-14.5 14.5,-14.5c8.1,0 14.5,6.5 14.5,14.5l0,49z" class="st1"/>
   </g>
   <g id="svg_18">
    <path fill="#FFFFFF" id="svg_19" d="m3639.4,219.2l0,23.3c0,2.9 2.3,5.1 5.1,5.1c2.9,0 5.1,-2.3 5.1,-5.1l0,-23.3c0,-2.9 -2.3,-5.1 -5.1,-5.1c-2.7,-0.1 -5.1,2.3 -5.1,5.1z" class="st1"/>
   </g>
   <g id="svg_20">
    <path fill="#FFFFFF" id="svg_21" d="m3683.8,168.8c-2.9,0 -5.1,2.3 -5.1,5.1l0,4.1c0,18.7 -15.3,34 -34,34s-34,-15.3 -34,-34l0,-4.1c0,-2.9 -2.3,-5.1 -5.1,-5.1c-2.9,0 -5.1,2.3 -5.1,5.1l0,4.1c0,24.5 19.8,44.4 44.4,44.4c24.5,0 44.4,-19.8 44.4,-44.4l0,-4.1c-0.4,-2.8 -2.6,-5.1 -5.5,-5.1z" class="st1"/>
   </g>
   <g id="svg_22">
    <path fill="#FFFFFF" id="svg_23" d="m3768.2,231.4l-28.6,0c-2.9,0 -5.1,2.3 -5.1,5.1s2.3,5.1 5.1,5.1l28.6,0c2.9,0 5.1,-2.3 5.1,-5.1s-2.3,-5.1 -5.1,-5.1z" class="st1"/>
   </g>
  </g>
  <g id="svg_24">
   <g id="svg_25">
    <path stroke="#140000" id="svg_26" fill="#FFFFFF" d="m562.99994,389.60001c0.3,-1 0.6,-1.9 0.9,-2.9c2.3,-7.7 4.6,-15.4 6.9,-23.2l0.3,-0.9c0.3,-0.9 1.1,-1.4 2,-1.4l7.6,0c1.9,0 2.3,0.6 1.6,2.4l-3,8c-3.4,8.7 -6.7,17.4 -10.1,26.1c-0.1,0.3 -0.3,0.6 -0.3,0.9c-0.3,1.1 -1.4,1.8 -2.5,1.6c-2.2,-0.1 -4.5,-0.1 -6.6,0c-1.5,0.1 -2.4,-0.7 -3,-2c-1.3,-3.3 -2.5,-6.6 -3.8,-10c-3,-7.9 -6,-15.7 -9.1,-23.5c-0.3,-0.6 -0.5,-1.3 -0.7,-1.9c-0.2,-1 0.2,-1.5 1.2,-1.5c2.8,-0.1 5.7,0 8.4,0c1.2,0 1.8,0.8 2,1.8c0.6,1.9 1.1,3.8 1.6,5.8c2,7 3.9,13.9 6,20.8c0.4,-0.1 0.4,-0.1 0.6,-0.1l0,0z" class="st1"/>
    <path stroke="#140000" id="svg_27" fill="#FFFFFF" d="m598.29994,380.60001l0,18c-0.1,1 -0.6,1.4 -1.5,1.5c-2.7,0.1 -5.4,0.1 -8.1,0c-1,0 -1.4,-0.5 -1.5,-1.4c-0.1,-0.3 -0.1,-0.7 -0.1,-0.9l0,-34.5c0.1,-1.5 0.4,-2 2,-2l7.1,0c1.5,0 2,0.4 2,2l0.1,17.3l0,0z" class="st1"/>
    <path stroke="#140000" id="svg_28" fill="#FFFFFF" d="m592.69994,343.20001c1,-0.1 2,0.1 2.9,0.5c1.9,0.8 3.3,2.5 3.4,4.6c0.4,4.5 -2.7,6.9 -6.7,6.8c-0.6,0 -1.1,-0.1 -1.6,-0.2c-3.1,-0.8 -4.7,-3.2 -4.5,-6.6c0.3,-2.7 2.4,-4.8 5.4,-5c0.5,-0.1 0.8,-0.2 1.1,-0.1l0,0z" class="st1"/>
    <path stroke="#140000" id="svg_29" fill="#FFFFFF" d="m728.89994,384.20001c0,-0.1 0,-0.1 0,0z" class="st1"/>
    <path stroke="#140000" id="svg_30" fill="#FFFFFF" d="m728.89994,377.50001l0,0.2c-0.2,-0.2 -0.3,-0.5 -0.2,-0.8l0,-0.4c0,0 0,-0.1 0.1,-0.1l-0.1,0l0,-0.5l0.1,0c0,-0.1 -0.1,-0.1 -0.1,-0.1c-0.1,-0.9 -0.3,-1.9 -0.6,-2.7c-1.8,-6.6 -6,-11 -12.7,-12.6c-3.2,-0.8 -6.4,-0.8 -9.5,-0.3c-6.8,1 -11.5,4.6 -13.9,11c-2.3,6 -2.3,12.8 0.1,18.9c2,5.5 6,9.1 11.7,10.4c3,0.8 6.2,0.9 9.3,0.5c10.4,-1.3 14.8,-9.2 15.6,-16l-0.1,0l0,-0.7c-0.1,-0.3 -0.1,-0.6 0.2,-0.8l0,0.1c0,-0.1 0.1,-0.2 0.1,-0.2l0,-5.9c0.1,0.1 0,0.1 0,0zm-12,9.5c-0.3,1.1 -0.8,2 -1.4,2.9c-1.1,1.5 -2.8,2.5 -4.8,2.7c-0.9,0.1 -1.9,0.1 -2.8,-0.1c-2.1,-0.4 -3.8,-1.8 -4.7,-3.8c-0.8,-1.5 -1.2,-3.3 -1.3,-4.9c-0.3,-2.9 -0.3,-5.9 0.4,-8.8c0.3,-1.2 0.8,-2.3 1.3,-3.3c1.1,-1.8 3,-2.9 5,-3.1c0.9,-0.1 1.9,-0.1 2.8,0.1c2,0.4 3.7,1.6 4.5,3.5c0.8,1.8 1.3,3.7 1.4,5.6c0.1,0.9 0.1,1.8 0.1,2.7c0.4,2.3 0.1,4.5 -0.5,6.5l0,0z" class="st1"/>
    <path stroke="#140000" id="svg_31" fill="#FFFFFF" d="m641.39994,343.50001l-7,0c-1.9,0 -2.3,0.3 -2.3,2.3l0,16.1c0,0.3 0.2,0.7 -0.1,1.1c-0.4,-0.1 -0.7,-0.3 -1.1,-0.6c-5.2,-3 -10.6,-3.6 -16.1,-1.1c-3.8,1.8 -6.2,5 -7.8,8.9c-1.5,3.7 -1.8,7.6 -1.8,11.5c0,3.7 0.8,7.3 2.5,10.6c1.9,3.7 4.6,6.5 8.6,7.6c5.5,1.6 10.5,0.8 15.1,-2.6c0.3,-0.2 0.6,-0.6 1,-0.7c0.3,0.6 0.4,1.2 0.6,1.8c0.2,0.8 0.9,1.3 1.8,1.3l1.2,0c1.8,0 3.5,0.1 5.3,0c1.4,0 1.8,-0.4 1.8,-1.9l0,-52.7c0.2,-1.2 -0.2,-1.6 -1.7,-1.6l0,0zm-9.1,36.7l0,9.2c0.1,0.6 -0.3,1.2 -0.8,1.4c-2.4,1.3 -5,1.9 -7.9,1.5c-2.3,-0.3 -4.3,-1.6 -5.4,-3.7c-0.8,-1.6 -1.3,-3.3 -1.4,-5c-0.4,-3.2 -0.2,-6.4 0.6,-9.3c0.3,-0.8 0.6,-1.6 1,-2.4c1.1,-1.9 3,-3.2 5.3,-3.4c2.7,-0.3 5.3,0.3 7.7,1.3c0.6,0.2 0.9,0.8 0.9,1.4c0,3.1 0,6 0,9l0,0z" class="st1"/>
    <path stroke="#140000" id="svg_32" fill="#FFFFFF" d="m671.59994,384.20001c2.9,-0.2 5.8,-0.8 8.3,-2.2c2.7,-1.3 4.5,-3.8 5,-6.6c0.3,-1.8 0.3,-3.7 -0.1,-5.5c-1.1,-4.5 -3.9,-7.2 -8.2,-8.7c-2.4,-0.8 -4.9,-1.1 -7.4,-0.9c-8.3,0.2 -14.8,4.5 -17.4,12.8c-1.8,5.5 -1.5,11.3 0.2,16.8c1.8,5.7 5.8,9.2 11.4,10.7c2.4,0.6 5,0.8 7.4,0.8c3.7,-0.1 7.2,-0.8 10.7,-2c1.4,-0.6 1.8,-1.1 1.8,-2.6l0,-3.6c-0.1,-1.4 -0.7,-1.9 -2.1,-1.6c-1.1,0.3 -2.2,0.6 -3.3,0.8c-3.4,0.8 -6.9,0.9 -10.3,0.3c-3.4,-0.7 -5.7,-2.6 -6.6,-6c-0.3,-1 -0.4,-2 -0.6,-3c0.3,0 0.5,0 0.7,0.1c3.8,0.4 7.2,0.6 10.5,0.4l0,0zm-10.5,-8c0.3,-1.9 0.8,-3.8 2,-5.5c1.8,-2.4 4.5,-3.2 7.2,-2.8c0.3,0 0.4,0.1 0.7,0.1c3.5,0.6 4.4,3.4 3.7,6c-0.5,2 -2.2,2.7 -3.9,3.1c-1,0.2 -2,0.3 -3.1,0.3c-2,-0.1 -3.9,-0.2 -6,-0.5c-0.5,0 -0.7,-0.2 -0.6,-0.7z" class="st1"/>
   </g>
   <g id="svg_33">
    <path stroke="#140000" id="svg_34" fill="#FFFFFF" d="m527.39994,465.90001c-2.7,-0.2 -5.5,-0.3 -8.2,-0.4c-7.2,-0.6 -14.6,-1.6 -21.6,-3.3c-24.5,-5.7 -46,-17.1 -64.7,-33.7c-1.8,-1.5 -3.4,-3.2 -5,-4.8c-0.4,-0.3 -0.8,-0.8 -0.9,-1.3c-0.3,-0.7 -0.2,-1.4 0.3,-2s1.3,-0.8 2,-0.4c0.4,0.2 0.9,0.4 1.3,0.7c18,11.1 37.6,19.2 58,23.9c6.9,1.6 13.8,2.8 20.8,3.8c10.1,1.3 20.1,1.6 30.2,1.3c5.5,-0.2 10.8,-0.7 16.2,-1.3c12.5,-1.6 25,-4.5 37.1,-8.4c6.4,-2.1 12.5,-4.5 18.6,-7.2c0.9,-0.5 2,-0.7 3,-0.4c1.6,0.4 2.7,2.1 2.3,3.8c-0.1,0.2 -0.2,0.4 -0.3,0.7c-0.4,0.8 -0.9,1.4 -1.6,1.9c-5.8,4.5 -11.9,8.4 -18.5,11.7c-12.4,6.2 -25.5,10.7 -39.1,13.2c-7.8,1.4 -15.8,2.3 -23.5,2.5l-0.1,0l0,0.2l-6,0l-0.3,-0.5l0,0zm91.8,-48.7c3.3,0.1 6.6,0.3 9.7,1.2c0.9,0.3 1.8,0.6 2.6,0.9c1.2,0.4 1.9,1.5 2,2.7c0.2,1.4 0.3,2.8 0.2,4.3c-0.7,8.5 -3.3,16.8 -7.7,24.1c-1.6,2.7 -3.5,5 -5.8,7.1c-0.4,0.4 -1,0.8 -1.6,1c-0.9,0.3 -1.5,-0.3 -1.6,-1.2c0.1,-0.5 0.2,-1 0.3,-1.5c1.8,-4.7 3.4,-9.3 4.8,-14.1c0.8,-2.7 1.3,-5.4 1.6,-8.2c0.1,-1 0.2,-2 0.1,-3c-0.1,-1.6 -1.2,-3.2 -2.7,-3.7s-3.2,-0.8 -4.8,-0.9c-4.6,-0.2 -9.2,0 -13.7,0.6l-6,0.8c-0.7,0.1 -1.3,0 -1.6,-0.6s-0.2,-1.2 0.2,-1.8s0.9,-1.1 1.5,-1.4c3.7,-2.7 7.9,-4.3 12.3,-5.3c3.2,-0.6 6.7,-0.9 10.2,-1l0,0z" class="st1"/>
    <path stroke="#140000" id="svg_35" fill="#FFFFFF" d="m367.79994,376.40001c-0.2,-2.6 -0.9,-5 -1.9,-7.6c-2,-4.3 -5.2,-7.4 -10,-8.5c-5.5,-1.2 -10.4,0 -14.9,3.4c-0.3,0.3 -0.7,0.6 -1.1,0.8c-0.1,-0.1 -0.2,-0.1 -0.2,-0.2c-0.2,-0.5 -0.3,-1 -0.4,-1.5c-0.4,-1.3 -0.9,-1.6 -2.3,-1.6c-1.5,0 -3,0.1 -4.5,0c-1.2,-0.1 -2.2,0.1 -3,1c0,17.5 0,35 0.1,52.3c0.7,1.1 1.6,1.3 2.7,1.2c1.8,-0.1 3.6,0 5.4,0c3.2,0 3.2,0 3.2,-3.1l0,-14.2c0,-0.3 -0.2,-0.8 0.2,-1.1c2.5,1.9 5.5,3.2 8.7,3.4c4.5,0.4 8.3,-0.7 11.7,-3.7c2.4,-2.3 4.3,-5 5.2,-8.3c1.3,-4 1.4,-8.1 1.1,-12.3l0,0zm135.4,7.4c3.8,0.7 7.6,0.8 11.3,0.2c2.2,-0.3 4.3,-0.9 6.2,-2c2.3,-1.3 3.9,-3.1 4.6,-5.6c1.8,-6.2 -0.9,-12.6 -7.4,-15c-3.2,-1.1 -6.6,-1.4 -10,-0.9c-7.9,0.9 -13,5.3 -15.4,12.8c-1.6,5 -1.4,10.3 -0.1,15.6c1.8,6.6 6,10.5 12.8,11.9c3.8,0.8 7.6,0.7 11.4,0.1c2,-0.3 3.9,-0.8 5.9,-1.6c1.2,-0.4 1.8,-1.2 1.6,-2.4c-0.1,-1.2 0,-2.4 0,-3.7c0,-1.5 -0.6,-1.9 -2,-1.6c-1.4,0.3 -2.8,0.7 -4.3,0.9c-3.1,0.7 -6.2,0.7 -9.3,0.1c-4.3,-0.8 -7.1,-4.5 -6.8,-9c0.5,0 1,0 1.5,0.2l0,0zm-68.7,16.3l-6.7,0c-1.8,0 -2.2,-0.5 -2.2,-2.2l0,-34.6c0,-0.4 0.1,-0.8 0.2,-1.2c0.2,-0.6 0.8,-0.9 1.4,-0.9l6.2,0c0.9,0 1.4,0.6 1.8,1.4c0.3,0.7 0.4,1.3 0.7,2.1c0.5,0 0.8,-0.3 1.2,-0.6c2.7,-1.6 5.6,-3.2 8.9,-3.8c2.5,-0.5 5,-0.5 7.4,0s4.5,1.9 5.8,3.9c0.1,0.2 0.2,0.3 0.3,0.3c-0.1,0.1 0,0.1 0.1,0.2c1.3,-0.8 2.5,-1.5 3.9,-2.3c3.5,-1.8 7.3,-2.7 11.3,-2.5c2.8,0.2 5.5,0.9 7.4,3c1.9,1.9 2.6,4.4 2.7,7c0.1,0.6 0.1,1.1 0.1,1.6l0,25.8c0,2.3 -0.3,2.5 -2.5,2.5l-6.2,0c-0.4,0 -0.8,0 -1.2,-0.1c-0.6,-0.1 -1.1,-0.6 -1.2,-1.2c-0.1,-0.5 -0.1,-1.1 -0.1,-1.6l0,-23.1c0.1,-0.9 -0.1,-1.8 -0.3,-2.7c-0.4,-1.5 -1.8,-2.7 -3.4,-2.7c-2.9,-0.2 -5.9,0.4 -8.6,1.6c-0.4,0.1 -0.7,0.5 -0.6,0.9l0,26.3c0,0.5 0,0.9 -0.1,1.4c0,0.7 -0.6,1.2 -1.3,1.2c-0.8,0.1 -1.5,0.1 -2.3,0.1l-5.2,0c-1.8,0 -2.3,-0.4 -2.3,-2.3l0,-23.4c0,-0.8 -0.1,-1.8 -0.3,-2.6c-0.3,-1.6 -1.8,-2.9 -3.5,-3c-3,-0.2 -6,0.4 -8.7,1.6c-0.4,0.1 -0.7,0.6 -0.6,0.9l0,26.6c0.2,2 -0.2,2.4 -2.1,2.4l0,0zm-50.5,0l-6.6,0c-0.3,0 -0.8,0 -1.1,-0.1c-0.7,-0.1 -1.2,-0.6 -1.2,-1.3c-0.1,-0.4 -0.1,-0.8 -0.1,-1.2l0,-34c0,-2.3 0.3,-2.5 2.5,-2.5l4.8,0c1.3,0 1.9,0.4 2.3,1.6c0.3,1.2 0.7,2.5 0.9,3.8c0.3,-0.1 0.7,-0.3 0.8,-0.6c0.9,-0.9 1.8,-1.8 2.8,-2.5c2.6,-2 5.9,-3 9.2,-2.7c1.3,0.1 1.8,0.4 1.8,1.6c0.1,1.6 0.1,3.4 0.1,5c0.1,0.7 0,1.3 -0.1,2c-0.2,0.9 -0.6,1.3 -1.4,1.3c-0.7,0.1 -1.3,0 -2,-0.1c-3.4,-0.3 -6.6,0.3 -9.7,1.4c-0.7,0.3 -0.7,0.8 -0.7,1.3l0,23.9c0,0.4 0,0.8 -0.1,1.3c-0.1,0.7 -0.6,1.2 -1.2,1.2c-0.3,0.6 -0.6,0.6 -1,0.6zm30.1,-0.2l-7,0c-0.3,0 -0.4,0 -0.7,-0.1c-0.7,-0.1 -1.3,-0.6 -1.3,-1.3c-0.1,-0.4 -0.1,-0.8 -0.1,-1.2c0.1,-5.5 0.1,-11.3 0.1,-16.9l0,-17.7c0.1,-1.2 0.5,-1.6 1.6,-1.6c2.6,-0.1 5.2,-0.1 7.8,0c1.2,0 1.5,0.3 1.6,1.5c0.1,0.4 0.1,0.8 0.1,1.3l0,33.2c0,0.6 -0.1,1.1 -0.1,1.6c-0.1,0.7 -0.6,1.1 -1.2,1.2c-0.2,0 -0.4,0 -0.8,0l0,0zm-58.2,-13.3c-0.3,1.5 -1.2,2.9 -2.3,3.9c-1.3,1.1 -2.9,1.8 -4.6,1.8c-2.5,0.2 -5,-0.4 -7.2,-1.6c-0.6,-0.3 -0.9,-0.8 -0.8,-1.4l0,-9.1c0,-3 0.1,-6 0,-9c-0.1,-0.7 0.3,-1.3 1,-1.5c2.7,-1.3 5.6,-1.9 8.6,-1.3c2.1,0.3 3.9,1.6 4.8,3.6c0.8,1.6 1.2,3.4 1.3,5c0.1,3.5 0.1,6.7 -0.8,9.6l0,0zm146.1,-10.6c0.2,-1.2 0.5,-2.4 0.9,-3.4c1.5,-3.7 4.6,-4.9 7.9,-4.7c0.9,0.1 1.8,0.3 2.7,0.6c1.3,0.6 2.2,1.8 2.3,3.2c0.2,0.8 0.1,1.8 -0.2,2.6c-0.6,1.8 -2,2.5 -3.8,2.9c-1.1,0.3 -2.2,0.3 -3.3,0.3c-1.9,0 -3.9,-0.2 -5.9,-0.4c-0.8,-0.2 -0.8,-0.2 -0.6,-1.1l0,0zm-91,-32.8c0.8,-0.1 1.6,0.1 2.4,0.3c2.7,0.9 4.1,3.3 3.8,6.2c-0.2,2.6 -2.2,4.7 -4.8,5c-1.1,0.2 -2.3,0.2 -3.4,0c-2.8,-0.6 -4.9,-2.7 -4.8,-6.2c0.4,-3.4 2.8,-5.3 6.8,-5.3l0,0z" class="st1"/>
   </g>
  </g>
  <g id="svg_36">
   <path stroke="#140000" id="svg_37" fill="#FFFFFF" d="m919.40006,181.4c0.2,0 0.2,0 0.5,0.1c3.3,0.5 6.6,1 9,2.2c2.3,1 3.6,2.3 4.9,4.6c1.8,3.5 2,8.3 0.3,11.9c-1.3,2.7 -4,5 -6.6,6.2c-2.6,1.3 -5.2,1.8 -8.2,2.2c-5.2,0.6 -10.8,-0.5 -15.5,-2.7c-2.7,-1.4 -6.2,-3.6 -7.8,-6.7c-1.3,-2.2 -1.2,-5 0.3,-7.1c2.5,-3.4 7.7,-4.1 11.5,-3.9c3,0.2 8.3,1 11.2,2.1c0.8,0.3 3.7,1.4 4.2,1.9c0.4,0.4 0.6,0.9 0.5,1.4c-0.6,2 -5.4,3 -6.8,3.2c-3.7,0.6 -5.7,-0.8 -9.9,-2.6c-1,-0.5 -2.5,-0.9 -3.5,-1c-1.9,-0.2 -4.2,0.4 -4.6,2.5c-0.2,1.1 1.1,2.1 2.1,2.6c2.3,1 4.1,1.4 6.3,1.4c6.6,0.1 14,-1 19.4,-4.8c0.7,-0.5 1.5,-1.3 1.5,-2.3c0,-1.9 -3.4,-3.2 -3.4,-3.2c-3.6,-1.5 -10.3,-2.2 -13.9,-2.6c-3.6,-0.3 -9.4,-0.8 -10.7,-1c-1.4,-0.2 -3,-0.5 -4.2,-1c-1.3,-0.5 -2.5,-1.8 -2.7,-3.2c-0.6,-2.5 0.2,-5.5 1.5,-7.5c3.6,-5.2 12,-7.1 18.3,-7.9c6.1,-0.7 16,-0.7 22,2.5c0.9,0.5 1.4,1 1.2,1.9c-0.4,1.8 -1.8,3 -3.5,3.6s-5.4,0.8 -7,0.9c-7.2,0.4 -16,0.2 -22.8,2.1c-0.5,0.2 -1.5,0.4 -1.8,0.7c-1,1.2 2,1.5 2.6,1.6c0.2,0.1 0.2,0.1 0.5,0.1l15.1,1.8m-43.1,-32.3c0,0 1.2,-1.8 2.2,-3.1c1.8,-2.5 5,-5.8 7.5,-7.9c0.7,-0.6 1.6,-1.4 1.6,-1.4s-1.4,0.2 -2.2,0.3c-1.8,0.4 -4.6,2.2 -5.9,3.4c-2.2,1.9 -4.6,5 -3.6,7.8c0.2,0.4 0.4,0.9 0.4,0.9m12.5,3.4c3.6,-0.2 6.8,-1.3 9.9,-3c3,-1.7 7.5,-5 7,-8.9c-0.2,-1.3 -1,-2.2 -2,-2.6c-1.4,-0.6 -2.1,-0.5 -3.8,0c-1.3,0.4 -1.8,0.6 -3,1.3c-3.5,2 -8.4,6.3 -11.1,9.9c-0.6,0.8 -1.3,1.7 -1.7,2.4c-0.3,0.4 -0.5,0.7 -0.5,0.8c0.2,0.2 3.8,0.2 5.2,0.1m-9,6.5c-0.4,0.4 -0.7,1.4 -1.2,2c-0.2,0.4 -0.6,0.8 -0.9,1c-0.9,0.6 -1.7,0.7 -2.6,-0.1c-1.3,-1.1 -2,-2.8 -2,-4.5c0,-0.7 0.1,-1.5 -0.1,-2.2c-0.2,-1 -1.3,-2.1 -1.8,-3c-0.6,-1.2 -1.2,-3.2 -1.3,-4.5c-0.2,-4.1 1.9,-7.8 4.6,-10.8c2.8,-3 6.5,-5.5 10.5,-7.2c3.8,-1.5 9.3,-2.6 13.5,-1.3c1.4,0.5 3.3,1.6 4.2,2.8c0.2,0.2 0.4,0.5 0.6,0.6c0.2,0.2 0.6,0.2 1,0.2c1.4,0.2 3.2,1.3 4,1.9c1.5,1.4 2.5,2.6 2.8,4.6c0.8,3.8 -1.4,7.9 -3.8,10.4c-4.2,4.3 -8.4,7.4 -13.9,9.5c-2.4,1 -6.1,1.8 -8.8,1.5c-0.8,-0.1 -1.7,-0.3 -2.6,-0.4c-0.5,0 -1.9,-0.5 -2.2,-0.5c0.3,0.2 0.1,0 0,0m4.9,8.4c0.2,0 0.5,0.1 0.6,0.2c1.9,0.7 2.6,2.5 3.1,4.4c1.1,4.5 1.5,14.4 1.7,18.3c0.2,2.9 0.2,5.8 0.3,8.7c0.1,2.5 0.3,5.7 -0.2,7.9c-0.2,0.8 -0.7,1.8 -1.5,2.2c-0.9,0.6 -3,0.6 -4.1,0.4c-2.7,-0.6 -3.7,-2.4 -4.1,-5.1c-1,-6.6 -0.5,-19.4 0.1,-24.9c0.2,-1.8 0.9,-7.5 1.8,-9.9c0.4,-0.7 1.1,-2.3 2.3,-2.2m-84.6,11c0,0 -4.2,0.3 -7,0.6c-3.6,0.4 -10.4,1.5 -14.3,3c-1.2,0.5 -3.6,1.4 -3.8,2.6c-0.2,1.3 0.6,2.2 1.4,3.3c0.5,0.6 3.4,3.4 4.2,4c3.4,2.7 10.1,7 15.1,9.1c1.7,0.7 4.6,1.7 4.6,1.7s-0.2,-8 -0.2,-16c-0.2,-4.2 0,-8.3 0,-8.3m75.8,3.2c0.2,2.2 -0.3,6.2 -0.5,6.7c-0.2,1.3 -1.1,4.1 -1.3,4.5c-0.7,1.7 -1.5,3.2 -2.3,4.6c-1.4,2.5 -4.6,6.3 -6.5,7.9c-7.1,6.2 -18.1,9.7 -27.6,10.9c-6.4,0.7 -13.9,0.6 -20.6,-0.6c-2.3,-0.5 -5.8,-1.3 -5.8,-1.3s0,1.4 -0.1,2.4c-0.1,0.5 -0.4,1.6 -0.6,2c-0.5,1 -1.4,1.5 -2.5,1.8c-1.4,0.3 -2.9,0.4 -4.2,-0.2c-2.2,-0.9 -3,-2.9 -3.4,-5.3c-0.3,-1.8 -0.6,-5.1 -0.6,-5.1s-1.6,-0.7 -3,-1.4c-4.2,-2 -8.1,-4.6 -11.5,-7c-1,-0.7 -5,-4.2 -5.9,-5c-2.6,-2.4 -4.8,-4.8 -6.6,-7.9c-1.4,-2.4 -1.7,-4.6 -0.7,-7c1.4,-3.6 6.5,-6.2 9.9,-7.8c2.6,-1.1 10.5,-3.7 13.9,-4.2c1.5,-0.2 3.9,-0.6 4.1,-0.7c0.1,-0.1 0.1,-0.1 0.2,-0.2c0.1,-0.1 0.2,-3.6 0.2,-4.9c0,-1.3 1,-9.5 1.3,-11.3c0.2,-1 0.9,-4.6 1.6,-5.6c0.5,-0.6 1.4,-0.6 2,-0.2c3.8,2.4 4.9,10.5 5.2,14.7c0.2,2.6 0.2,6.3 0.2,6.3s4.3,-0.2 7,-0.1c2.6,0.1 5.4,0.5 8.2,0.9c3.4,0.5 10.2,2 14,3.9c3.2,1.6 6.2,4.3 7.1,7.2c0.9,2.6 0.7,4.5 -0.6,6.8c-1.5,2.6 -4.5,4.6 -7.4,4.8c-0.9,0.1 -4.2,-0.4 -5.2,-1.2c-0.4,-0.3 -0.4,-0.9 -0.1,-1.3c0.1,-0.2 1.6,-1 2.6,-1.4c0.5,-0.2 0.8,-0.5 1.2,-0.8c0.7,-0.6 1.4,-1.4 1.4,-2.2c-0.1,-1.1 -1.3,-1.8 -2.4,-2.2c-5.3,-2.1 -15.8,-3.8 -20.8,-4.1c-2,-0.2 -4.8,-0.2 -4.8,-0.2l0.6,28c0,0 2.3,0.5 4.2,0.7c1,0.2 5.5,0.6 6.7,0.6c9.1,0.2 19.1,-0.6 27.5,-4.5c3.6,-1.7 7,-3.8 9.5,-6.7c3.4,-3.8 5,-9.1 4.6,-14.6c-0.5,-5.9 -4.6,-13.1 -8.1,-17.4c-8.8,-11.5 -24.1,-20.8 -37.5,-26.4c-13.7,-5.7 -27.2,-8.8 -41.7,-9.4c-3.7,-0.2 -11.9,0.1 -16,1.2c-0.6,0.2 -1.2,0.4 -1.7,0.5s-1.1,0.4 -1.3,0.5c-0.1,0.1 -0.2,0.2 -0.2,0.2s0.2,0.2 0.5,0.2c0.5,0.2 2.3,0.3 3.2,0.5c0.8,0.2 1.7,0.6 2.1,1.3c0.3,0.6 0.4,1 0,1.5c-1,1.1 -4.5,1 -6,0.6c-1.6,-0.2 -3.6,-0.7 -4,-2.2c-0.5,-1.6 0.4,-3.3 1.2,-4.7c1.7,-3 4.2,-4.6 7.8,-5.5c5,-1.4 11.5,-2.4 16.3,-2.6c10.9,-0.5 21.1,1.5 31.6,4.6c6,1.8 13.9,4.8 19.6,7.7c4.2,2 10.7,5.7 14.3,8c1.2,0.7 7.9,5.7 8.9,6.6c2.2,1.8 5,4.4 7.1,6.4c4,3.9 9,10 11.5,14.9c0.6,1.2 1,2.3 1.8,3.6c0.2,0.5 1.4,3.2 1.5,4s0.5,1.9 0.5,2c0,0.9 0.4,3.3 0.4,4.2m136.2,-6.2c-5,1.2 -18.4,1.8 -18.4,1.8l-1.7,5.3c0,0 6.7,-0.6 11.5,-0.1c0,0 1.5,-0.2 1.8,1.8c0.1,1.8 -0.2,3.8 -0.2,3.8s-0.1,1.2 -1.8,1.5c-1.8,0.3 -14.3,0.8 -14.3,0.8l-2,6.8c0,0 -0.7,1.5 1,1.1c1.5,-0.5 14.7,-2.9 16.4,-2.6c1.8,0.5 3.8,2.9 3.3,5.1c-0.6,2.7 -13.9,11.1 -21.8,10.6c0,0 -4.2,0.3 -7.8,-5.4c-3.3,-5.4 1.3,-15.6 1.3,-15.6s-2.1,-4.7 -0.6,-6.4c0,0 0.9,-0.8 3.5,-1l3.2,-6.6c0,0 -3.6,0.2 -5.8,-2.5c-2,-2.6 -2.2,-3.7 -0.6,-4.5s16.9,-3.6 27.5,-3.3c0,0 3.6,-0.4 6.8,5.9c-0.1,0.3 1.3,2.8 -1.3,3.5m-39.5,25.5c-1.4,3.2 -4.9,6.6 -9.3,4.5c-4.4,-2.1 -11.3,-16.3 -11.3,-16.3s-2.6,-5.3 -3.1,-5.1c0,0 -0.6,-1 -0.9,4.7c-0.4,5.8 0.1,17.1 -2.2,18.7c-2.2,1.8 -4.8,1 -6.2,-1c-1.3,-2 -1.8,-6.9 -1.1,-15.4c0.8,-8.6 2.7,-17.6 5.3,-20.4c2.6,-2.8 4.6,-0.7 5.4,0c0,0 3.4,3 9,12l1,1.6c0,0 5,8.5 5.6,8.5c0,0 0.5,0.4 0.8,0.1c0.5,-0.2 0.3,-2.9 0.3,-2.9s-1,-9.3 -5.7,-25c0,0 -0.6,-1.9 -0.2,-3.8s2.3,-1 2.3,-1s7.1,3.6 10.7,15.2c3.3,11.9 1.1,22.5 -0.4,25.6m77.3,-7c-3.3,5.7 -12.5,17.6 -24.8,14.8c-4,9.9 -7.5,19.7 -9.4,34.6c0,0 -0.5,2.9 -2.8,1.8c-2.4,-0.8 -6.3,-4.7 -7,-10.3c-0.8,-7.2 2.4,-19.3 8.8,-33.2c-1.9,-3.1 -3.2,-7.5 -2.1,-13.9c0,0 1.6,-11.7 13.4,-22.3c0,0 1.4,-1.2 2.2,-0.8c0.9,0.4 0.5,4.2 -0.2,6s-5.9,10.9 -5.9,10.9s-3.3,6.1 -2.4,10.9c6.2,-9.5 20.2,-28.5 28.8,-22.5c2.9,2.1 4.2,6.6 4.2,11.5c0.1,4.5 -0.9,9.1 -2.8,12.5m-2.6,-14.9c0,0 -0.5,-3.8 -4.2,0.4c-3.2,3.5 -8.8,10 -13.5,19c4.8,-0.5 9.5,-3.1 10.9,-4.5c2.3,-2.1 7.7,-7.6 6.8,-14.9m70,-0.9l-22.4,0c-0.5,-7.7 -1.4,-15.1 -2.8,-22.7c-0.2,-0.8 -0.8,-1.4 -1.6,-1.4l-5.2,0c-0.5,0 -0.9,0.2 -1.2,0.5c-0.3,0.4 -0.4,0.8 -0.3,1.3c1.5,7.5 2.4,14.7 2.8,22.3l-21.6,0c-1,0 -1.8,0.8 -1.8,1.8l0,4.6c0,1 0.8,1.8 1.8,1.8l22,0c0,1.1 0,2.2 0,3.1c0,6.7 -0.3,12.3 -1,18.5c-0.1,0.5 0.1,1 0.5,1.4c0.3,0.4 0.7,0.6 1.3,0.6l4.8,0c1,0 1.7,-0.6 1.8,-1.6c0.6,-6.3 1,-11.9 1,-18.7c0,-1 0,-2 0,-3.1l22.2,0c1,0 1.8,-0.8 1.8,-1.8l0,-4.6c-0.2,-1.2 -1,-2 -2.1,-2" class="st1"/>
   <path stroke="#140000" id="svg_38" fill="#FFFFFF" d="m817.20006,115.5c-0.3,0.5 -0.4,1 -0.2,1.5s0.6,1 1.1,1.1l4,1.4c0.2,0.1 0.5,0.2 0.7,0.2c0.7,0 1.4,-0.4 1.8,-1c13.1,-19.3 31,-35.5 51.6,-46.6c21.3,-11.5 45.3,-17.5 69.7,-17.5c29.4,0 57.6,8.7 81.9,25.1c23.6,16 42,38.2 53.1,64.4c0.3,0.8 1.1,1.3 1.9,1.3l4.8,0c0.5,0 1,-0.3 1.4,-0.7c0.3,-0.5 0.4,-1 0.2,-1.5c-11.5,-28.2 -30.8,-52.2 -55.9,-69.4c-25.7,-17.6 -55.9,-27 -87.3,-27c-51.9,-0.2 -100.1,25.6 -128.8,68.7" class="st1"/>
  </g>
  <g id="svg_39">
   <path stroke="#140000" id="svg_40" fill="#FFFFFF" d="m1254.30006,107.4c-5.1,0 -10.7,0 -15.8,0c0,21.5 -0.1,35.4 -0.1,57c-6.8,-21 -13.6,-34.9 -20.4,-57c-5.8,0 -9.4,0 -15.2,0c0,33.6 0,67.1 0,100.7c5.1,-0.7 10.6,-1.4 15.8,-2.1c0,-21.1 0,-34 0.1,-55c7.1,20.8 11.4,33 18.4,52.7c5.5,-0.6 11.5,-1.4 17.1,-1.9c0.1,-31.5 0.1,-62.9 0.1,-94.4" class="st1"/>
   <path stroke="#140000" id="svg_41" fill="#FFFFFF" d="m1313.40006,107.4c-14.7,0 -29.2,0 -43.9,0c-0.1,31 -0.2,62 -0.2,93c14.7,-1.3 29.3,-2.4 44,-3.3c0,-4.5 0,-11.1 0,-15.6c-9.5,0.6 -18.7,1.2 -28.1,1.8c0,-8.3 0,-15.2 0.1,-23.5c7,-0.2 14.3,0 21.3,-0.2c0,-4.5 0,-11.1 0,-15.7c-7.1,0.2 -14.5,0.2 -21.3,0.3c0,-8.3 0,-12.9 0.1,-21.2c4.4,-0.1 8.7,-0.1 12.9,-0.1c0.8,0 1.5,0 2.3,0s1.5,0 2.3,0c3.6,0 7.1,0 10.8,0c-0.1,-4.4 -0.3,-10.9 -0.3,-15.5" class="st1"/>
   <path stroke="#140000" id="svg_42" fill="#FFFFFF" d="m1372.50006,107.5c-16,0 -32.7,0 -48.7,0c0,4.5 0,11 0,15.5c0.7,0 1.4,0 2.1,0c2.1,0 4.2,0 6.3,0.1c2.1,0 4.2,0.1 6.3,0.1c0.5,0 1.1,0 1.6,0c0,25 -0.1,47.8 -0.1,72.8c5.1,-0.2 10.7,-0.4 15.8,-0.5c0,-24.9 0.1,-47.5 0.1,-72.3c5.5,0 11.1,0 16.6,-0.1c0,-4.6 0,-11.2 0,-15.6" class="st1"/>
   <path stroke="#140000" id="svg_43" fill="#FFFFFF" d="m1426.70006,107.4c-14.7,0 -29.3,0 -44,0c0,29.2 0,58.3 0,87.6c1.7,0 3.4,0 5.1,0c3.5,0 7.1,0 10.5,0.1c0,-12.4 0,-23.7 0,-36c0.8,0 1.7,0 2.7,0c2,0 4.1,0 6.2,0s4.2,0 6.2,0c2.1,0 4.3,0 6.3,0c0,-4.5 0,-11.1 0,-15.5c-1.9,0 -3.9,0 -6,0c-2.2,0 -4.4,0 -6.6,0s-4.4,0 -6.5,0c-0.8,0 -1.6,0 -2.4,0c0,-8 0,-12.5 0,-20.4c1.7,0 3.4,0 5.1,0s3.4,0 5.2,0c1.7,0 3.5,0 5.2,0c4.2,0 8.5,0 12.8,0c0.2,-4.6 0.2,-11.4 0.2,-15.8" class="st1"/>
   <path stroke="#140000" id="svg_44" fill="#FFFFFF" d="m1436.90006,107.5c0.1,29.5 -0.1,58.9 -0.1,88.4c14,0.5 28.8,1.1 42.9,2c0,-4.5 0,-11.1 0,-15.6c-8.9,-0.5 -18.1,-1.2 -27.1,-1.5c-0.1,-25.2 0.1,-48.1 0.1,-73.4c-5,0.1 -10.6,0.1 -15.8,0.1" class="st1"/>
   <path stroke="#140000" id="svg_45" fill="#FFFFFF" d="m1492.70006,107.5c0.1,30.5 0.2,60.9 0.2,91.4c5.1,0.4 10.4,0.8 15.6,1.3c0,-30.9 0.1,-61.8 0,-92.7c-5.1,0 -10.7,0 -15.8,0" class="st1"/>
   <path stroke="#140000" id="svg_46" fill="#FFFFFF" d="m1522.10006,107.5c6.3,15.4 12.1,30.9 18.6,47.2c-6.7,15.7 -13.5,31.3 -20.1,46.4c5.5,0.5 11.3,1.3 16.8,1.9c3.9,-9.7 7.6,-17.1 11.5,-27.1c3.9,10.6 7.6,18.8 11.4,29.8c5.5,0.7 12.6,1.7 18.1,2.5c-6.7,-17.9 -13.9,-36.5 -20.7,-53.3c6.7,-15.8 13.5,-31 20.4,-47.5c-5.7,0 -11.5,0 -17.2,0c-4.3,10.3 -7.2,16.8 -11.3,26.6c-3.8,-10.2 -6.4,-16.7 -10.3,-26.6c-5.6,0.1 -11.5,0.1 -17.2,0.1" class="st1"/>
  </g>
  <g id="XMLID_1_">
   <path stroke="#140000" id="XMLID_84_" fill="#FFFFFF" d="m1614.39994,429.10001c-0.9,0.6 -0.4,1.6 -0.6,2.5c-1.4,6.9 -5.4,11 -12.2,12.6c-4.3,1 -8.7,1 -12.8,-0.2c-6.5,-1.8 -9.6,-6.8 -11.2,-12.8c-0.6,-2.2 -1,-4.6 -1.1,-6.8c-0.4,-10.7 -1.4,-21.4 1,-32c2.1,-9.4 7.4,-13.4 16.9,-13.9c2.1,-0.1 4.2,-0.1 6.2,0.4c7.4,1.4 11.3,5.4 12.7,13.2c0.4,1.5 0.1,3 0.9,4.2c0,6.9 0,13.9 0,20.8c-7.6,-0.1 -15.4,-0.1 -23.1,-0.2c-0.6,0 -1.1,0.2 -1.1,1c0.1,4.7 -0.2,9.4 0.9,13.9c0.6,2.5 2.2,3.7 4.7,3.7s4.1,-1 4.8,-3.6c0.6,-1.8 0.9,-3.8 0.9,-5.8c0,-1.1 0.2,-1.7 1.6,-1.6c3.3,0.4 6.6,0.5 10,0.5c0.9,0 1,0.6 1.6,1c-0.1,0.6 -0.1,1.9 -0.1,3.1zm-24.2,-28.4c0,1.8 0,3.8 0,6c0,0.9 0.1,1.5 1.1,1.4c2.8,-0.1 5.5,0 8.4,0c0.6,0 1.1,0 1.1,-0.9c-0.1,-5 0.2,-10.1 -0.9,-15.3c-0.6,-2.6 -2.2,-3.7 -4.8,-3.6c-2.2,0 -3.4,1.1 -4.2,3.6c-0.6,2.7 -0.3,5.6 -0.7,8.8z" class="st1"/>
   <path stroke="#140000" id="XMLID_79_" fill="#FFFFFF" d="m1543.09994,386.40001c2.6,-4.2 5.7,-6.8 10,-7.8c6.4,-1.6 11.9,1.2 14.3,7.4c1.5,3.6 2,7.5 2.1,11.3c0.5,10.2 0.9,20.5 -0.4,30.8c-0.4,3 -1,5.9 -2.2,8.7c-1.8,4.3 -4.8,7.4 -9.7,8c-5.4,0.5 -10.1,-1.1 -13.4,-5.5c-0.4,-0.4 -0.6,-0.9 -1,-1.5c-0.2,0.6 -0.4,1 -0.5,1.4c-1.2,4.8 -1.2,4.8 -6,4.8c-1.7,0 -3.4,-0.1 -5.2,0c-1.6,0.1 -2,-0.5 -2,-2c0.1,-13.8 0,-27.4 0,-41.1c0,-15.3 0.1,-30.6 -0.1,-45.9c0,-2.1 0.6,-2.5 2.5,-2.3c3.1,0.2 6.2,0.2 9.2,0c2.2,-0.2 2.5,0.6 2.5,2.6c-0.1,10.1 -0.1,20.1 -0.1,31.1zm11.9,26c0,-3.6 0.1,-7.3 0,-10.7c-0.1,-3.3 -0.4,-6.8 -1.4,-10.1c-1,-3.1 -3.9,-4.1 -6.8,-2.2c-2.2,1.5 -3.7,3.6 -3.7,6.5c0,11.1 0,22.1 0,33.2c0,2.7 1.5,4.6 4.1,4.9c3,0.6 4.8,-0.4 6,-3.1c0.4,-1 0.7,-2.1 0.9,-3.2c0.9,-5 0.9,-10.2 0.9,-15.3z" class="st1"/>
   <path stroke="#140000" id="XMLID_78_" fill="#FFFFFF" d="m1433.29994,435.70001c-2.6,4.7 -5.7,7.6 -10.3,8.7c-8.4,2 -14.6,-2.2 -15.9,-10.7c-0.4,-2.2 -0.5,-4.7 -0.5,-6.9c0,-15.1 0,-30.1 0,-45.2c0,-1.7 0.4,-2.2 2.2,-2.2c3.6,0.2 7,0.1 10.6,0c1.6,-0.1 2,0.5 2,2c-0.1,14.5 0,29.3 0,43.8c0,2.2 -0.1,4.6 0.6,6.8c0.6,1.7 1.6,2.6 3.4,2.6c3.4,0 6,-2.5 6,-6c0,-15.6 0,-31.4 0,-47c0,-1.7 0.5,-2.1 2.1,-2.1c3.6,0.1 7.4,0.1 11.1,0c1.4,0 1.6,0.4 1.6,1.6c0,20.4 0,40.9 0,61.2c0,1 -0.2,1.6 -1.5,1.6c-3,-0.1 -5.9,-0.1 -8.7,0c-1.1,0 -1.4,-0.4 -1.6,-1.4c-0.3,-2 -0.6,-4.1 -1.1,-6.8z" class="st1"/>
   <path stroke="#140000" id="XMLID_77_" fill="#FFFFFF" d="m1507.79994,435.70001c-2.3,4.2 -5,7.3 -9.4,8.6c-9,3 -16.1,-2 -17.1,-11.3c-0.4,-4.2 -0.4,-8.4 -0.4,-12.7c0,-12.8 0,-25.8 -0.1,-38.6c0,-1.8 0.5,-2.2 2.2,-2.2c3.6,0.1 7,0.1 10.6,0c1.6,-0.1 2,0.4 2,2c-0.1,14.8 0,29.5 0,44.3c0,2 -0.1,3.9 0.5,5.8c0.6,2.3 1.8,3.2 4.3,3c3.2,-0.4 5.4,-2.6 5.4,-5.8c0,-15.6 0,-31.4 0,-47c0,-1.7 0.4,-2.3 2.2,-2.2c3.6,0.2 7.3,0.1 10.7,0c1.4,0 1.8,0.4 1.8,1.7c-0.1,20.4 -0.1,40.6 0,60.9c0,1.4 -0.4,1.8 -1.7,1.7c-2.8,-0.1 -5.5,-0.1 -8.4,0c-1,0 -1.6,-0.2 -1.7,-1.5c-0.2,-2 -0.7,-4 -0.9,-6.7z" class="st1"/>
   <path stroke="#140000" id="XMLID_74_" fill="#FFFFFF" d="m1399.39994,413.30001c-0.1,4.4 0,10.3 -1.1,16.2c-2.1,10.7 -8,15.5 -18.9,15.4c-2.2,0 -4.7,-0.2 -6.9,-0.7c-7.1,-1.6 -10.5,-6.6 -11.9,-13.3c-0.6,-3 -1,-5.8 -1,-8.7c-0.4,-9.5 -0.9,-19.1 1,-28.4c2.3,-12.4 10.6,-16.5 22.1,-15.3c9.1,0.9 14.2,5.5 16.1,18c0.6,5 0.6,10.2 0.6,16.8zm-25.5,-1.7c0,4.2 -0.1,8.2 0,12.4c0.1,2.8 0.2,5.5 1.2,8.1c0.6,1.7 2,2.8 3.9,3c2,0.1 3.3,-1 4.1,-2.7c0.6,-1.5 1,-3 1,-4.6c0.7,-9.6 0.4,-19.3 0.4,-28.9c0,-2.6 -0.4,-5.3 -1.4,-7.6c-0.7,-1.7 -2.1,-2.7 -4.1,-2.7s-3.3,1 -3.9,2.8c-0.6,1.5 -0.9,3 -1,4.3c-0.6,5.1 -0.2,10.5 -0.2,15.9z" class="st1"/>
   <path stroke="#140000" id="XMLID_73_" fill="#FFFFFF" d="m1315.29994,355.80001c4.6,0 8.9,0 13.3,0c1.2,0 1.2,0.9 1.4,1.6c3,13.9 6.2,27.7 8.7,41.7c0,0.1 0.1,0.4 0.2,0.5c1.5,-7 3,-13.9 4.3,-20.8c1.6,-7.3 3.3,-14.4 4.8,-21.7c0.2,-1 0.4,-1.5 1.5,-1.5c4.3,0.1 8.7,0 13.3,0c-1.5,5 -2.8,10.1 -4.2,14.8c-4.1,14.4 -8.1,28.8 -12.2,43.3c-0.4,1 -0.4,2.1 -0.4,3.1c0,8.1 -0.1,16.4 0,24.5c0,1.8 -0.4,2.5 -2.2,2.3c-3.3,-0.2 -6.6,-0.1 -10,0c-1.7,0.1 -2.2,-0.4 -2.2,-2.2c0.1,-4.8 -0.2,-9.6 0.1,-14.4c0.5,-8 -1,-15.5 -3.2,-23.1c-4.7,-15.6 -8.7,-31.4 -13.2,-47.2c0.3,-0.1 0.1,-0.4 0,-0.9z" class="st1"/>
   <path stroke="#140000" id="XMLID_72_" fill="#FFFFFF" d="m1470.99994,405.70001c0,11.9 0,24 0,35.9c0,1.8 -0.5,2.2 -2.2,2.2c-3.3,-0.1 -6.4,-0.2 -9.7,0c-2,0.1 -2.3,-0.5 -2.3,-2.2c0.1,-20.1 0,-40.2 0,-60.3c0,-3.9 -0.1,-8 0,-11.9c0,-1.5 -0.4,-2 -1.8,-2c-3.6,0.1 -7.3,0 -10.7,0.1c-1.4,0 -2,-0.2 -1.8,-1.7c0.1,-2.8 0.1,-5.5 0,-8.4c0,-1.4 0.4,-1.8 1.7,-1.8c13.2,0.1 26.3,0.1 39.5,0c1.5,0 1.7,0.4 1.7,1.7c-0.1,3 -0.1,5.7 0,8.6c0,1.1 -0.4,1.6 -1.6,1.6c-3.4,-0.1 -6.9,0.1 -10.3,-0.1c-2,-0.1 -2.6,0.4 -2.6,2.5c0.2,11.9 0.1,23.9 0.1,35.8z" class="st1"/>
   <path stroke="#140000" id="svg_47" fill="#FFFFFF" d="m1298.69994,369.30001c-1.7,-11.4 -7.6,-17.1 -19.2,-18.5c-8.7,-1 -17.1,-1.4 -25.8,-1.7c-0.7,-0.1 -1.7,0.4 -2.2,-0.5c-16.5,0 -33,0 -49.5,-0.1c-0.6,1 -1.5,0.5 -2.2,0.5c-8.5,0.4 -16.9,0.6 -25.3,1.7c-10.6,1.4 -16.5,7 -18.3,17.5c-1,5.7 -1.4,11.3 -1.8,17c-0.1,0.6 0.4,1.6 -0.5,2c0,8.5 0,16.7 0,25.2c0.9,0.5 0.4,1.4 0.5,2c0.6,6.4 1,12.8 2.2,19.2c1.8,8 7.4,13.3 15.4,14.8c3.6,0.6 7.4,1 11.2,1.4c16.5,1 32.9,1.6 49.5,1.4c16.1,-0.2 32.2,-0.4 48.2,-2.2c9.8,-1.1 15.8,-6.8 17.6,-16.5c1.1,-5.9 1.6,-11.9 2,-17.8c0.6,-15.4 0.6,-30.4 -1.8,-45.4zm-47.9,30.6c-12.7,7.4 -25.2,14.5 -38,21.9l0,-0.1c0,-14.6 0,-28.9 0,-43.7c12.7,7.3 25.1,14.4 38,21.9c0,-0.1 0,-0.1 0,0l0,0z" class="st1"/>
  </g>
  <g id="svg_48">
   <path stroke="#140000" id="svg_49" fill="#FFFFFF" d="m511.30006,148.1c-0.9,-0.4 -2.2,-1.9 0.1,-6.3l5.4,-11.3c0.2,-0.3 -0.2,-0.8 -0.5,-0.5l-4.7,4.7c-2.2,2.3 -6,8.9 -6.8,10.1l-5.7,9.5c0.6,0 1,0.6 0.7,1.1l-5.2,8.8c-1.3,2.2 1,3.7 1.3,3.2c8.2,-13.3 13,-12.2 13,-12.2l2.7,-6.4c0.2,-0.2 0,-0.6 -0.3,-0.7" class="st1"/>
   <path stroke="#140000" id="svg_50" fill="#FFFFFF" d="m530.00006,37.2c-47.1,0 -85.2,38.1 -85.2,85.2c0,18.9 6.2,36.4 16.7,50.6c3.6,-1.5 5.6,-3.9 7,-5.6l15.9,-20.3c0.3,-0.4 0.8,-0.8 1.3,-1l2.4,-1l25.9,-33.1l3.8,-3l7.8,-10.8c0.2,-0.3 0.4,-0.5 0.7,-0.7l3.4,-2.5c0.8,-0.6 2,-0.6 2.8,0l4.1,2.9c2.2,1.5 4,3.6 5.2,6l16.5,29c0.4,0.6 0.6,0.9 1.3,1.2c3.2,1.6 5.2,1.9 9.4,6.5c2,2.1 10.6,11.8 22.7,26.9c1.7,2.3 3.8,4.2 6.8,5.5c10.4,-14.1 16.6,-31.6 16.6,-50.5c0.1,-47.1 -38,-85.3 -85.1,-85.3m-62.2,90l-5.5,-1.8l-3.4,4.7l0,-5.8l-5.5,-1.8l5.5,-1.8l0,-5.8l3.4,4.7l5.5,-1.8l-3.4,4.7l3.4,4.7zm-1.3,19l-1.8,5.5l-1.8,-5.5l-5.8,0l4.7,-3.4l-1.8,-5.5l4.7,3.4l4.7,-3.4l-1.8,5.5l4.7,3.4l-5.8,0zm1.1,-44l1.8,5.5l-4.7,-3.4l-4.7,3.4l1.8,-5.5l-4.7,-3.4l5.8,0l1.8,-5.5l1.8,5.5l5.8,0l-4.7,3.4zm9.3,-12.5l-3.4,-4.7l-5.5,1.8l3.4,-4.7l-3.4,-4.7l5.5,1.8l3.4,-4.7l0,5.8l5.5,1.8l-5.5,1.8l0,5.8zm14.5,-20.4l-1.8,5.5l-1.8,-5.5l-5.8,0l4.7,-3.4l-1.8,-5.5l4.7,3.4l4.7,-3.4l-1.8,5.5l4.7,3.4l-5.8,0zm18.3,-9.3l-3.4,4.7l0,-5.8l-5.5,-1.8l5.5,-1.8l0,-5.8l3.4,4.7l5.5,-1.8l-3.4,4.7l3.4,4.7l-5.5,-1.8zm23.2,-5.3l1.8,5.5l-4.7,-3.4l-4.7,3.4l1.8,-5.5l-4.7,-3.4l5.8,0l1.8,-5.5l1.8,5.5l5.8,0l-4.7,3.4zm20.8,4.2l0,5.8l-3.4,-4.7l-5.5,1.8l3.4,-4.7l-3.4,-4.7l5.5,1.8l3.4,-4.7l0,5.8l5.5,1.8l-5.5,1.8zm38.5,58.9l5.5,1.8l3.4,-4.7l0,5.8l5.5,1.8l-5.5,1.8l0,5.8l-3.4,-4.7l-5.5,1.8l3.4,-4.7l-3.4,-4.7zm-21.8,-42.9l-1.8,-5.5l-5.8,0l4.7,-3.4l-1.8,-5.5l4.7,3.4l4.7,-3.4l-1.8,5.5l4.7,3.4l-5.8,0l-1.8,5.5zm12.7,14.8l0,-5.8l-5.5,-1.8l5.5,-1.8l0,-5.8l3.4,4.7l5.5,-1.8l-3.4,4.7l3.4,4.7l-5.5,-1.8l-3.4,4.7zm10.4,9.1l1.8,-5.5l1.8,5.5l5.8,0l-4.7,3.4l1.8,5.5l-4.7,-3.4l-4.7,3.4l1.8,-5.5l-4.7,-3.4l5.8,0zm3.6,47.4l-1.8,5.5l-1.8,-5.5l-5.8,0l4.7,-3.4l-1.8,-5.5l4.7,3.4l4.7,-3.4l-1.8,5.5l4.7,3.4l-5.8,0z" class="st1"/>
   <path stroke="#140000" id="svg_51" fill="#FFFFFF" d="m560.90006,171.7c0.4,-0.6 1.1,-2.2 -0.2,-5.3l-3.8,-10.1c-0.5,-1.3 0.6,-2.1 1.4,-1.2c0,0 7.1,8.2 9,11.6l3.5,5.8c3,0.2 11.4,0.4 19.4,0.4c-0.8,-0.8 -1.5,-1.6 -2.2,-2.6c-13.7,-17 -22.4,-26.4 -22.5,-26.5c-2.8,-3 -4.1,-3.6 -6.2,-4.6c-0.3,-0.1 -0.6,-0.3 -1,-0.5l0,2.6c0,0.3 -0.4,0.5 -0.6,0.2l-20.2,-35.4l-0.1,-0.1c-0.8,-1.7 -2.1,-3.1 -3.6,-4.2l-2,-1.4l-9.6,22.2c1.5,0 2.5,1.5 1.9,2.9l-8.9,20.5l8.2,0c3.2,0 6.3,0.6 9.2,1.8l2.1,0.9c0,0 -6.5,13.3 -6.5,20.4c0,1.3 0.2,2.6 0.5,3.8l14.9,0l-0.7,-4.2c0.2,0.1 9.2,2.1 18,3" class="st1"/>
   <path stroke="#140000" id="svg_52" fill="#FFFFFF" d="m445.60006,193.3c0,-13.7 -14.5,-20.3 -31.8,-20.3c-18.5,0 -35.5,8.2 -41.7,20.9c-1.7,3.4 -2.6,7.1 -2.6,10.9c-0.1,3.3 0.8,6.5 2.6,9.3c2.7,3.9 7.4,6.4 14.4,6.4c8.6,0 15.4,-4.7 15.4,-12.9c0,0 0.1,-2.3 -2.5,-2.3c-2.2,0 -2.7,1.5 -2.7,2.3c0.3,6.4 -3.5,11.6 -10.3,11.6c-7.6,0 -10.8,-6.5 -10.8,-13.4c0,-14.2 10.7,-23.6 21.8,-27.6c5.2,-2 10.7,-2.9 16.3,-2.9c12.6,0 22.9,4.8 22.9,17.8c0,10.8 -9.1,20 -20,20.8l0.4,-1.5c2.2,-7.9 5,-16.6 9.4,-23.1c0.3,-0.4 0.7,-1 1.2,-1.7l-0.6,-0.8c-1,0.6 -1.8,1.2 -2.7,1.9c-20.8,16.3 -21.5,62 -49.2,62c-1,0 -1.9,-0.1 -2.9,-0.2c-5.8,-1 -8.8,-4.8 -8.8,-10.2c0,-1.1 0.4,-2.5 0.4,-3.4c0.1,-1.5 -1.2,-2.9 -2.7,-2.9l-0.3,0c-2.5,0 -3.5,2 -3.6,4.8c-0.2,8.1 5.8,12.8 15,13.7c1,0.1 2,0.1 3.1,0.1c21.7,0 34.9,-16.4 40.6,-36.3c2.9,-0.3 5.7,-1 8.4,-1.8c9.9,-2.6 21.3,-9.3 21.3,-21.2" class="st1"/>
   <path stroke="#140000" id="svg_53" fill="#FFFFFF" d="m651.90006,198.1l-7.6,0l-1.7,4l-3,6.7l-3.6,0l-1.1,2.3l3.7,0l-4.4,9.8c-3.2,6.9 -8.1,13.7 -11,13.7c-0.6,0 -1,-0.3 -1,-0.9c0,-0.6 0.2,-1.2 0.9,-3c0.9,-2.1 2.4,-5.1 3.4,-7.4c1.6,-3.2 4.1,-8.3 4.1,-10.7c0,-2.5 -1.6,-4.4 -4.7,-4.4c-3.5,0 -6.7,2.1 -9.6,5.1l1.9,-4.6l-7.2,0l-5.8,13.3c-2.4,4.7 -7.1,12.5 -10.1,12.5c-0.6,0 -0.9,-0.4 -0.9,-1c0.1,-0.6 0.2,-1.1 0.4,-1.7c0.3,-0.6 3.7,-8.8 3.7,-8.8l6.4,-14.5l-7.7,0l-6.2,14.2c-1.9,4.4 -6.7,11.8 -9.8,11.8c-0.5,0.1 -1,-0.3 -1.1,-0.9l0,-0.3c0,-0.8 0.6,-2.2 1,-3.2l3.2,-7.1l6.7,-14.5l-7.7,0l-1.5,3.3c-1.1,2.2 -3,4.8 -6.1,4.8c-1.5,0 -2.2,-0.6 -2.5,-1.1c-0.4,-4.9 -3.6,-7.5 -8.1,-7.5c-6.4,0 -10.9,3.7 -13.9,8.3c-2,3.2 -3.5,6.5 -4.6,10.1c-2.7,4.5 -5.6,8 -7.9,8c-0.6,0 -1,-0.3 -1,-1.1s0.8,-2.5 1,-3.1l5,-10.7c1.4,-3.3 2.4,-5.5 2.4,-7.6c0,-2.3 -1.6,-3.9 -4.2,-3.9c-3.6,0 -7.6,2.1 -10.7,5.5c0.1,-0.6 0.1,-1.1 0.1,-1.7c0,-2.5 -1.3,-3.9 -3.9,-3.9c-3.3,0 -6.7,2 -9.8,5.5l2,-5l-7,0l-5.9,13.3c-2.8,6.3 -7.3,12.5 -9.8,12.5c-0.6,0 -1,-0.3 -1,-1.1c0,-1.2 1.3,-4.2 1.8,-5.4l7.8,-17.7c0.6,-1.3 -3.2,-2.2 -7.9,-2.2c-4.9,0 -9.9,2.4 -13.6,5.5c-2.6,2.2 -4.5,3.2 -5.5,3.2c-0.5,0 -0.7,-0.3 -0.7,-0.6c0,-1.1 2.6,-4.1 2.6,-6.5c0,-1.1 -0.6,-1.8 -2,-1.8c-2.8,0 -6.1,2.7 -8.5,5.5l2,-4.9l-6.9,0l-5.9,13.3c-2.8,6.3 -7.4,12.8 -10,12.8c-0.6,0 -1,-0.3 -1,-1.1c0,-1.2 1.3,-4.1 2,-5.7l7.8,-17.8c0.6,-1.3 -3.2,-2.2 -7.9,-2.2c-7.1,0 -13.9,4.8 -17.5,9.7c-4,5.3 -6.7,10.9 -6.8,15.4c-0.1,3.7 1.8,6 5.7,6c4.3,0 7.7,-3.4 9.7,-5.9c-0.1,0.5 -0.2,1 -0.3,1.5c0,2.5 1,4.4 4.1,4.4c2.7,0 6.4,-2.3 9.3,-5.9l-2.4,5.4l7.4,0l7.3,-16.6c2.4,-5.4 5.1,-8.2 5.9,-8.2c0.3,0 0.4,0.1 0.4,0.3c0,0.6 -1.1,2.1 -1.1,3.5s0.8,2.5 2.8,2.5c1.6,0 3.4,-0.8 5,-1.8c-3.7,5.1 -6.3,10.4 -6.3,14.8c-0.1,3.7 1.8,6 5.7,6c4,0 7.8,-3.8 9.8,-6.4c-0.1,0.6 -0.1,1.1 -0.1,1.8c0,2.5 1.4,4.6 4.3,4.6c3.2,0 5.7,-2 8.9,-5.8l-2.4,5.3l7.6,0l7,-15.8c3,-6.9 7.2,-10.5 9.2,-10.5c0.5,-0.1 1,0.3 1,0.8l0,0.2c-0.1,0.8 -0.3,1.5 -0.6,2.2l-10,23.2l7.8,0l7.1,-16.1c3,-6.9 6.4,-10.3 9,-10.3c0.8,0 1.1,0.4 1.1,1.2c-0.1,0.9 -0.3,1.8 -0.7,2.5l-6.9,14.6c-0.6,1.4 -1,2.9 -1.1,4.4c0,2.2 1.2,4.2 4.6,4.2c4.4,0 7.8,-3.4 11.6,-8.4l0,1.1c0.3,4 2.5,7.5 8.5,7.5c7,0 12.6,-4.8 16.1,-12.5c1.3,-2.7 2.2,-5.6 2.5,-8.6c0.8,0.4 1.7,0.6 2.5,0.5c1.1,0 2.3,-0.3 3.3,-0.8l-1.2,2.6c-1.4,2.9 -2.9,6.2 -4.1,8.9c-0.8,1.6 -1.2,3.4 -1.3,5.1c0,2.7 1.5,4.7 4.6,4.7s7.4,-2.9 10.4,-7.1l0.1,0c-0.2,0.8 -0.3,1.7 -0.3,2.6c0,2.3 0.7,4.4 3.9,4.4c3.7,0 6.5,-2.7 9.3,-6l-2.4,5.3l7.7,0l6.2,-14c3.5,-7.9 7,-12.6 10.2,-12.6c0.6,0 1,0.4 1.1,1l0,0.2c0,1.3 -1.9,5 -3.6,8.6c-1.6,3.3 -2.8,5.8 -3.6,7.8c-0.8,1.7 -1.2,3.4 -1.3,5.3c0,2.4 1.3,4.3 4.3,4.3c4.4,0 9,-4.3 11.4,-7.6c-0.6,1.6 -0.8,3.2 -0.9,4.8c0,4.4 2.7,6.7 6.4,6.7c2.5,0 4.9,-0.8 6.9,-2.3c2.9,-2 5.3,-5.1 7.2,-7.9l-1.3,-1.3c-1.8,2.6 -3.9,5.1 -6,6.6c-1.1,1 -2.5,1.5 -3.9,1.5c-1.6,0 -2.6,-0.8 -2.6,-2.9c0,-2 1,-4.8 2.4,-8.5c0.1,-0.1 2.2,-4.8 4.1,-9.3c1.7,-3.8 3.3,-7.5 3.6,-8.3l5,0l1,-2.3l-5,0l4.8,-9.7zm-216.7,36.6c-1.1,0 -1.8,-0.4 -1.8,-1.8c0.1,-3.7 3.2,-10.4 7.1,-15.8c2.7,-3.7 6.3,-6.4 10.1,-6.4l-4.8,10.8c-3.7,8.2 -7.7,13.2 -10.6,13.2m47.5,0c-1.1,0 -1.8,-0.4 -1.9,-1.8c0.1,-3.7 3.2,-10.4 7.1,-15.8c2.7,-3.7 6.3,-6.4 10.1,-6.4l-4.8,10.8c-3.7,8.4 -7.5,13.2 -10.5,13.2m84.4,-21c-0.2,4.1 -3.8,14.1 -8.1,20.1c-1.7,2.4 -3.2,3.1 -4.4,3.1c-1.8,0 -2.3,-1.5 -2,-3.6c0.4,-3.7 3.5,-12.5 7.8,-18.6c2,-2.7 3.3,-3.9 4.8,-3.9c1.5,0 2,1.3 1.9,2.9" class="st1"/>
   <polygon stroke="#140000" points="685.7000732421875,208.8000030517578 692.7000732421875,192.6999969482422 684.4000244140625,192.6999969482422 677.4000244140625,208.8000030517578 659.800048828125,208.8000030517578 656.9000244140625,215.60000610351562 674.5001220703125,215.60000610351562 667.5001220703125,231.8000030517578 675.7000732421875,231.8000030517578 682.7000732421875,215.60000610351562 700.300048828125,215.60000610351562 703.300048828125,208.8000030517578 " id="svg_54" fill="#FFFFFF" class="st1"/>
  </g>
  <g id="svg_55">
   <path stroke-miterlimit="10" stroke-width="4" stroke="#FFFFFF" id="svg_56" fill="none" d="m1012.59994,437.00001l-136.4,0c-20.8,0 -37.6,-17.1 -37.6,-38.2l0,67.9c0,21.1 16.9,38.2 37.6,38.2l136.4,0c20.8,0 37.6,-17.1 37.6,-38.2l0,-67.9c0,21.1 -16.8,38.2 -37.6,38.2" class="st2"/>
   <g id="svg_57">
    <path stroke-miterlimit="10" stroke-width="4" stroke="#FFFFFF" id="svg_58" fill="#FFFFFF" d="m999.09994,352.10001c-2.3,-2.2 -5.8,-2.7 -8.8,-2c-2.1,0.5 -3.9,2 -4.9,3.9c-1.7,2.9 -1.9,6.3 -1.7,9.6c0.2,3.1 0.8,6.3 2.9,8.7c2.2,2.6 5.9,3.2 9.1,2.6c2.5,-0.5 4.5,-2.4 5.6,-4.7c1.4,-2.9 1.5,-6.3 1.3,-9.4c-0.4,-3.1 -1.2,-6.5 -3.5,-8.7z" class="st3"/>
    <path stroke="#140000" id="svg_59" fill="#FFFFFF" d="m1013.49994,290.00001l-138.5,0c-21.1,0 -38.2,17.1 -38.2,38.2l0,70.6c0,21.1 17.1,38.2 38.2,38.2l138.5,0c21.1,0 38.2,-17.1 38.2,-38.2l0,-70.6c0,-21.1 -17.1,-38.2 -38.2,-38.2zm-37.9,38.4c1.5,-3.4 4.8,-5.6 8,-7.2c5.8,-2.9 12.7,-3 18.7,-0.6c3.4,1.4 6.7,3.5 8.9,6.6c1.8,2.7 1.4,6 1.4,9c-1.8,-1.9 -3.6,-3.9 -5.8,-5.3c-4.4,-3 -9.9,-4.2 -15.2,-3.6c-6.4,0.5 -12.7,3.6 -16.6,8.8c-0.1,-2.6 -0.5,-5.3 0.6,-7.7zm-76.5,52.1c-1.3,2.2 -4,3.1 -6.4,3.3c-3.3,0.3 -6.8,-0.1 -9.9,-1.4c-3,-1.3 -5.4,-3.9 -6.5,-7c-0.9,-2.5 -1.2,-5.1 -1.2,-7.8c0,-8.2 0,-16.5 0,-24.7c0,-2.1 0.3,-4.3 1.5,-6.1c1.2,-1.7 2.6,-3.5 4.5,-4.4c1.4,-0.7 2.9,-0.5 4.4,-0.5c0,3.2 0,6.3 0,9.5c4.8,0 9.7,0 14.5,0c-0.1,1.8 0.1,3.5 -0.1,5.3c-0.6,2.5 -3.2,3.9 -5.6,4c-2.9,0 -5.9,0 -8.8,0c0,5.7 0,11.3 0,17c0,2.2 0.6,4.7 2.5,6c2,1.3 4.4,1.1 6.7,0.9c1.9,-0.1 3.6,-0.7 5.3,-1.5c-0.1,2.5 0.5,5.2 -0.9,7.4zm12.3,-54.1c3.1,-0.8 6.5,1.2 7.3,4.3c1.2,3.7 -1.9,7.8 -5.8,7.8c-3.3,0.2 -6.3,-2.8 -6.2,-6.1c0,-2.8 2,-5.4 4.7,-6zm14,55.4c-1,1.5 -2.9,2 -4.6,2c-3.4,0.1 -7.2,-0.6 -9.7,-3.1c-2.7,-2.6 -3.5,-6.4 -3.5,-10c0,-9.5 0,-18.9 0,-28.4c2.4,0.1 5.1,-0.3 7.3,1c2.1,1.2 3.1,3.7 3.1,6.1c0,5.6 0,11.2 0,16.8c0,1.8 -0.1,3.7 0.2,5.5c0.2,1.1 0.8,2.3 1.9,2.8c1.9,1 4.2,0.8 6.3,0.8c0,2.2 0.3,4.6 -1,6.5zm4.8,-11.8c-1.5,-5.9 -0.9,-12.5 2.2,-17.8c2.7,-4.8 7.5,-8.2 12.7,-9.9c4.4,-1.4 9.1,-1.9 13.6,-1.1c3.2,0.6 6.5,2.3 7.9,5.3c1.2,2.2 0.7,4.7 0.8,7c-0.4,0 -0.9,0 -1.3,0c-3.5,-2.6 -8.1,-3.5 -12.4,-3.6c-4.1,-0.1 -8.3,1.5 -10.9,4.8c-2,2.4 -2.9,5.7 -2.7,8.8c0.1,3.5 1,7.2 3.6,9.7c2.7,2.8 6.9,3.6 10.7,3.4c1.4,-0.1 3.4,-0.5 3.6,-2.2c0.2,-3.8 0.1,-7.6 -0.7,-11.3c2,0.1 4,-0.1 6,0.1c2.6,0.2 5,2.5 4.9,5.2c-0.2,3.8 0.6,7.8 -1.1,11.3c-1.5,3.2 -4.9,4.9 -8.2,5.5c-6.3,1.2 -13.2,0.7 -18.8,-2.6c-4.8,-2.7 -8.5,-7.3 -9.9,-12.6zm66.3,31.8c-1.5,4.8 -5.3,8.3 -9.3,10.9c-5.6,3.7 -12.3,5.8 -19,5.5c-8.6,-0.3 -17.2,-4 -23.1,-10.4c-1.6,-1.8 -3,-3.8 -3.7,-6.2c-1.1,-3.2 -0.8,-6.7 -0.7,-10c3.1,4 6.6,7.7 10.9,10.4c5.2,3.3 11.4,4.9 17.6,4.6c8.1,-0.1 16.3,-3 22.4,-8.4c2.3,-1.8 4,-4.2 5.7,-6.5c0.1,3.4 0.4,6.9 -0.8,10.1zm13.9,-27.3c-2.4,4.4 -6.6,7.8 -11.4,9.1c-5.9,1.6 -12.6,1 -17.7,-2.6c-4.7,-3.3 -7.5,-8.8 -8.3,-14.4c-0.6,-5.4 0.1,-11 2.6,-15.8c1.7,-3.3 4.3,-6.1 7.6,-7.8c2.7,-1.5 5.8,-2.2 8.9,-2.4c4.3,-0.3 8.7,0.7 12.3,3.1c5,3.3 8.1,9.1 8.7,15c0.7,5.4 0,11 -2.7,15.8z" class="st1"/>
   </g>
   <g id="svg_60">
    <path stroke="#140000" id="svg_61" fill="#FFFFFF" d="m881.89994,477.70001c0,-1.5 -0.6,-2.6 -1.7,-3.5c-1.1,-0.8 -3.1,-1.5 -5.9,-2.1c-2.8,-0.6 -5,-1.3 -6.6,-2.1c-1.6,-0.8 -2.8,-1.8 -3.6,-3c-0.8,-1.1 -1.2,-2.5 -1.2,-4.1c0,-2.6 1.1,-4.9 3.3,-6.7c2.2,-1.8 5.1,-2.7 8.6,-2.7c3.6,0 6.6,0.9 8.9,2.8c2.3,1.9 3.4,4.3 3.4,7.2l-5.5,0c0,-1.5 -0.6,-2.8 -1.9,-3.9c-1.3,-1.1 -2.9,-1.6 -4.8,-1.6c-2,0 -3.6,0.4 -4.7,1.3c-1.1,0.9 -1.7,2 -1.7,3.4c0,1.3 0.5,2.3 1.6,3c1.1,0.7 2.9,1.3 5.7,1.9c2.7,0.6 5,1.3 6.7,2.2c1.7,0.9 3,1.9 3.8,3.1c0.8,1.2 1.2,2.7 1.2,4.4c0,2.9 -1.2,5.2 -3.5,6.9c-2.3,1.7 -5.3,2.6 -9,2.6c-2.6,0 -4.9,-0.5 -6.8,-1.4c-2,-0.9 -3.5,-2.2 -4.7,-3.8c-1.1,-1.6 -1.7,-3.4 -1.7,-5.3l5.5,0c0.1,1.8 0.8,3.3 2.2,4.4c1.4,1.1 3.2,1.6 5.5,1.6c2.1,0 3.8,-0.4 5,-1.3c1.3,-0.7 1.9,-1.8 1.9,-3.3z" class="st1"/>
    <path stroke="#140000" id="svg_62" fill="#FFFFFF" d="m920.59994,470.50001c0,4.9 -1.1,8.8 -3.4,11.8c-2.2,3 -5.3,4.5 -9.1,4.5c-3.9,0 -7,-1.2 -9.2,-3.7l0,15.5l-5.5,0l0,-44.6l5,0l0.3,3.6c2.2,-2.8 5.4,-4.2 9.3,-4.2c3.9,0 6.9,1.5 9.2,4.4c2.3,2.9 3.4,7 3.4,12.2l0,0.5zm-5.5,-0.6c0,-3.6 -0.8,-6.5 -2.3,-8.6c-1.5,-2.1 -3.7,-3.2 -6.4,-3.2c-3.3,0 -5.8,1.5 -7.5,4.4l0,15.5c1.6,2.9 4.2,4.4 7.6,4.4c2.6,0 4.7,-1 6.3,-3.1c1.5,-2.1 2.3,-5.3 2.3,-9.4z" class="st1"/>
    <path stroke="#140000" id="svg_63" fill="#FFFFFF" d="m925.49994,469.90001c0,-3.2 0.6,-6 1.9,-8.5c1.2,-2.5 3,-4.5 5.2,-5.8c2.2,-1.4 4.7,-2.1 7.6,-2.1c4.4,0 7.9,1.5 10.6,4.6c2.7,3 4.1,7.1 4.1,12.1l0,0.4c0,3.1 -0.6,5.9 -1.8,8.4c-1.2,2.5 -2.9,4.4 -5.1,5.8c-2.2,1.4 -4.8,2.1 -7.7,2.1c-4.4,0 -7.9,-1.5 -10.6,-4.6c-2.7,-3 -4.1,-7.1 -4.1,-12l0,-0.4l-0.1,0zm5.5,0.6c0,3.6 0.8,6.4 2.5,8.6c1.7,2.2 3.9,3.2 6.6,3.2c2.8,0 5,-1.1 6.7,-3.3c1.6,-2.2 2.5,-5.3 2.5,-9.2c0,-3.5 -0.8,-6.4 -2.5,-8.6c-1.7,-2.2 -3.9,-3.3 -6.7,-3.3c-2.7,0 -4.9,1.1 -6.6,3.2c-1.6,2.3 -2.5,5.4 -2.5,9.4z" class="st1"/>
    <path stroke="#140000" id="svg_64" fill="#FFFFFF" d="m975.99994,459.00001c-0.8,-0.1 -1.7,-0.2 -2.7,-0.2c-3.6,0 -6.1,1.5 -7.3,4.6l0,22.8l-5.5,0l0,-32.2l5.4,0l0.1,3.7c1.8,-2.9 4.4,-4.3 7.7,-4.3c1.1,0 1.9,0.1 2.4,0.4l0,5.2l-0.1,0z" class="st1"/>
    <path stroke="#140000" id="svg_65" fill="#FFFFFF" d="m990.69994,446.30001l0,7.8l6,0l0,4.3l-6,0l0,20c0,1.3 0.3,2.3 0.8,2.9c0.5,0.6 1.4,1 2.7,1c0.6,0 1.5,-0.1 2.6,-0.4l0,4.4c-1.4,0.4 -2.9,0.6 -4.2,0.6c-2.5,0 -4.3,-0.7 -5.6,-2.2c-1.2,-1.5 -1.9,-3.6 -1.9,-6.3l0,-20l-5.9,0l0,-4.3l5.9,0l0,-7.8l5.6,0z" class="st1"/>
    <path stroke="#140000" id="svg_66" fill="#FFFFFF" d="m1021.19994,477.70001c0,-1.5 -0.6,-2.6 -1.7,-3.5c-1.1,-0.8 -3.1,-1.5 -5.9,-2.1c-2.8,-0.6 -5,-1.3 -6.6,-2.1c-1.6,-0.8 -2.8,-1.8 -3.6,-3c-0.8,-1.1 -1.2,-2.5 -1.2,-4.1c0,-2.6 1.1,-4.9 3.3,-6.7c2.2,-1.8 5.1,-2.7 8.6,-2.7c3.6,0 6.6,0.9 8.9,2.8c2.3,1.9 3.4,4.3 3.4,7.2l-5.5,0c0,-1.5 -0.6,-2.8 -1.9,-3.9c-1.3,-1.1 -2.9,-1.6 -4.8,-1.6c-2,0 -3.6,0.4 -4.7,1.3c-1.1,0.9 -1.7,2 -1.7,3.4c0,1.3 0.5,2.3 1.6,3c1.1,0.7 2.9,1.3 5.7,1.9c2.7,0.6 5,1.3 6.7,2.2c1.7,0.9 3,1.9 3.8,3.1c0.8,1.2 1.2,2.7 1.2,4.4c0,2.9 -1.2,5.2 -3.5,6.9c-2.3,1.7 -5.3,2.6 -9,2.6c-2.6,0 -4.9,-0.5 -6.8,-1.4c-2,-0.9 -3.5,-2.2 -4.7,-3.8c-1.1,-1.6 -1.7,-3.4 -1.7,-5.3l5.5,0c0.1,1.8 0.8,3.3 2.2,4.4c1.4,1.1 3.2,1.6 5.5,1.6c2.1,0 3.8,-0.4 5,-1.3c1.3,-0.7 1.9,-1.8 1.9,-3.3z" class="st1"/>
   </g>
  </g>
 </g>

</svg>