<?xml version="1.0" encoding="utf-8"?>
<!-- Generator: Adobe Illustrator 24.0.3, SVG Export Plug-In . SVG Version: 6.00 Build 0)  -->
<svg version="1.1" id="Layer_1" xmlns="http://www.w3.org/2000/svg" xmlns:xlink="http://www.w3.org/1999/xlink" x="0px" y="0px"
	 viewBox="0 0 512 512" style="enable-background:new 0 0 512 512;" xml:space="preserve">
<path d="M376,357.2V464c0,13.2-10.8,24-24,24H160c-13.2,0-24-10.8-24-24V48c0-13.2,10.8-24,24-24h25.4l6.7,33.6
	c0.7,3.7,4,6.4,7.8,6.4h112c3.8,0,7.1-2.7,7.8-6.4l6.7-33.6H352c13.2,0,24,10.8,24,24v123.5h16V80.7V48c0-22.1-17.9-40-40-40H160
	c-22.1,0-40,17.9-40,40v416c0,22.1,17.9,40,40,40h192c22.1,0,40-17.9,40-40V357.2H376z M310.2,24l-4.8,24h-98.9l-4.8-24H310.2z"/>
<g>
	<path d="M264.6,281.7c0,29.2-15.9,48.5-44.5,48.5c-30.1,0-43.7-18.9-43.7-48.5v-54.1c0-29.2,14.2-48.1,44.1-48.1
		c28.7,0,44.1,19.3,44.1,48.1V281.7z M220.6,207c-12,0-16.7,8.8-16.7,20.6v54.6c0,11.8,4.7,20.4,16.7,20.4
		c11.6,0,16.7-8.8,16.7-20.4v-54.6C237.3,216,232.2,207,220.6,207z"/>
	<path d="M297.3,294.7c3.9,3.1,10,8,20.5,8c16.1,0,21-10.9,20.7-24.8v-5.9c-2.6,3.8-10.6,8.6-21.2,8.6c-26.4,0-39.3-16.2-39.3-47.2
		v-6.3c0-26.7,14.8-47.6,43.7-47.6c30.1,0,44.3,18.9,44.3,47.6v50c0,30.2-13,53.1-47.4,53.1c-18.7,0-30.3-7.8-36-13.2L297.3,294.7z
		 M338.6,234.1v-6.9c0-11.8-5.1-20.4-17.1-20.4c-11.8,0-16.7,8.8-16.7,20.4v6.3c0,12,5.1,20.1,16.9,20.1
		C333.5,253.6,338.4,245.2,338.6,234.1z"/>
	<path d="M425.7,292.2l-24,35.3h-28.5l38.2-57.3l-36.2-55h30.5l21.2,31.9l21.2-31.9H477l-36,54.1l38,58.1h-29.5L425.7,292.2z"/>
</g>
</svg>
