<?xml version="1.0" encoding="utf-8"?>
<!-- Generator: Adobe Illustrator 24.0.3, SVG Export Plug-In . SVG Version: 6.00 Build 0)  -->
<svg version="1.1" id="Layer_1" xmlns="http://www.w3.org/2000/svg" xmlns:xlink="http://www.w3.org/1999/xlink" x="0px" y="0px"
	 viewBox="0 0 512 512" style="enable-background:new 0 0 512 512;" xml:space="preserve">
<style type="text/css">
	.st0{fill:#020202;}
</style>
<g>
	<g>
		<path class="st0" d="M281.1,278.5H308v18.8c-6.9,7.1-20.2,14.5-39.2,14.5c-29.7,0-51.6-21.6-51.6-54.9c0-32.1,20.5-54.5,50.2-54.5
			c21.9,0,34.3,10.7,41.9,20.9l25.7-19c-11.4-17.6-32.8-32.6-67.5-32.6c-50.9,0-84.7,38.3-84.7,85.1c0,51.1,34.5,85.4,84.7,85.4
			c18.8,0,32.6-5.7,41.1-12.6v9.8h31.9v-88.5h-59.2V278.5z M443.8,252.5c10.5-5.7,17.4-18.8,17.4-33.3c0-28.1-16.9-44.5-49.2-44.5
			h-50.7v164.6h54c29.7,0,49.7-18.1,49.7-48.3C465,271.3,457.6,259.2,443.8,252.5z M393.9,203.3h15.2c11.9,0,18.3,6.7,18.3,18.8
			c0,12.1-6.7,19-18.3,19h-15.2V203.3z M410.5,310.6h-16.6v-41.4h16.6c13.1,0,20.5,7.6,20.5,20.5C431,302,423.6,310.6,410.5,310.6z
			 M145.2,208.8h-36.8l-7.1,36.5h-35l-6.7,34.4h35l-7.1,36.8h36.8l7.1-36.8h35l6.7-34.4h-35L145.2,208.8z"/>
	</g>
</g>
<g>
	<path d="M352,8H160c-22.1,0-40,17.9-40,40v122.2h16V48c0-13.2,10.8-24,24-24h25.4l6.7,33.6c0.7,3.7,4,6.4,7.8,6.4h112
		c3.8,0,7.1-2.7,7.8-6.4l6.7-33.6H352c13.2,0,24,10.8,24,24v93.2h16V48C392,25.9,374.1,8,352,8z M305.4,48h-98.9l-4.8-24h108.5
		L305.4,48z"/>
	<path d="M376,464c0,13.2-10.8,24-24,24H160c-13.2,0-24-10.8-24-24V352.2h-16V464c0,22.1,17.9,40,40,40h192c22.1,0,40-17.9,40-40
		v-93.8h-16V464z"/>
</g>
</svg>
